<svg xmlns="http://www.w3.org/2000/svg" width="1024" height="1024" fill="none" viewBox="0 0 1024 1024">
    <path fill="#27074F" d="M0 0h1024v1024H0z"/>
    <path stroke="#fff" stroke-linecap="round" stroke-width="3" d="M115.051 460.645s30.566 18.958 40.549 24.113c71.927 37.14 150.529 41.705 230.03 35.307 36.52-2.939 75.22-7.722 109.695-20.972 9.773-3.756 25.711-9.988 27.157-19.972 1.795-12.381-9.842-15.138-23.612-16.182-14.689-1.114-37.844-2.113-49.196 9.285-12.816 12.868-10.703 49.122.443 62.041 34.676 40.191 93.502 27.671 133.628 5.898 81.607-44.282 196.031-135.254 321.82-41.069"/>
    <path fill="#007AFF" stroke="#fff" stroke-width="3" d="M184.735 501.667c0 5.896 4.855 10.712 10.889 10.712 6.033 0 10.888-4.816 10.888-10.712s-4.855-10.712-10.888-10.712c-6.034 0-10.889 4.816-10.889 10.712Z"/>
    <ellipse cx="8.576" cy="8.455" fill="#FF2323" rx="8.576" ry="8.455" transform="matrix(-1 0 0 1 124.153 450)"/>
    <path fill="#CCF232" stroke="#fff" stroke-width="3" d="M370.418 522.333c0 6.934-5.708 12.591-12.794 12.591-7.087 0-12.795-5.657-12.795-12.591 0-6.933 5.708-12.591 12.795-12.591 7.086 0 12.794 5.658 12.794 12.591Z"/>
    <path fill="#007AFF" stroke="#fff" stroke-width="3" d="M553.382 556.151c0 9.009-7.414 16.349-16.605 16.349-9.192 0-16.606-7.34-16.606-16.349 0-9.008 7.414-16.348 16.606-16.348 9.191 0 16.605 7.34 16.605 16.348Z"/>
    <path fill="#FF8F50" stroke="#fff" stroke-width="3" d="M736.347 467.849c0 7.971-6.561 14.469-14.7 14.469s-14.7-6.498-14.7-14.469c0-7.972 6.561-14.47 14.7-14.47s14.7 6.498 14.7 14.47Z"/>
    <ellipse cx="906.518" cy="499.788" fill="#FEE000" rx="10.482" ry="10.333"/>
</svg>
