<svg xmlns="http://www.w3.org/2000/svg" width="1024" height="1024" fill="none" viewBox="0 0 1024 1024">
    <path fill="#CCF232" d="M0 0h1024v1024H0z"/>
    <path stroke="#02935F" stroke-linecap="round" stroke-width="8" d="M219.572 65c8.93 15.772-125.657 85.277-62.233 70.702 63.424-14.576-67.66 60.456-90.839 98.798m153.072.5c8.93 15.772-125.657 85.277-62.233 70.702 63.424-14.576-67.66 60.456-90.839 98.798m153.072.5c8.93 15.772-125.657 85.277-62.233 70.702 63.424-14.576-67.66 60.456-90.839 98.798m153.072.5c8.93 15.772-125.657 85.277-62.233 70.702 63.424-14.576-67.66 60.456-90.839 98.798m153.072.5c8.93 15.772-125.657 85.277-62.233 70.702 63.424-14.576-67.66 60.456-90.839 98.798M365.572 65c8.93 15.772-125.657 85.277-62.233 70.702 63.424-14.576-67.659 60.456-90.839 98.798m153.072.5c8.93 15.772-125.657 85.277-62.233 70.702 63.424-14.576-67.659 60.456-90.839 98.798m153.072.5c8.93 15.772-125.657 85.277-62.233 70.702 63.424-14.576-67.659 60.456-90.839 98.798m153.072.5c8.93 15.772-125.657 85.277-62.233 70.702 63.424-14.576-67.659 60.456-90.839 98.798m153.072.5c8.93 15.772-125.657 85.277-62.233 70.702 63.424-14.576-67.659 60.456-90.839 98.798M511.572 65c8.93 15.772-125.657 85.277-62.233 70.702 63.424-14.576-67.659 60.456-90.839 98.798m153.072.5c8.93 15.772-125.657 85.277-62.233 70.702 63.424-14.576-67.659 60.456-90.839 98.798m153.072.5c8.93 15.772-125.657 85.277-62.233 70.702 63.424-14.576-67.659 60.456-90.839 98.798m153.072.5c8.93 15.772-125.657 85.277-62.233 70.702 63.424-14.576-67.659 60.456-90.839 98.798m153.072.5c8.93 15.772-125.657 85.277-62.233 70.702 63.424-14.576-67.659 60.456-90.839 98.798M657.572 65c8.93 15.772-125.657 85.277-62.233 70.702 63.424-14.576-67.659 60.456-90.839 98.798m153.072.5c8.93 15.772-125.657 85.277-62.233 70.702 63.424-14.576-67.659 60.456-90.839 98.798m153.072.5c8.93 15.772-125.657 85.277-62.233 70.702 63.424-14.576-67.659 60.456-90.839 98.798m153.072.5c8.93 15.772-125.657 85.277-62.233 70.702 63.424-14.576-67.659 60.456-90.839 98.798m153.072.5c8.93 15.772-125.657 85.277-62.233 70.702 63.424-14.576-67.659 60.456-90.839 98.798M803.572 65c8.93 15.772-125.657 85.277-62.233 70.702 63.424-14.576-67.659 60.456-90.839 98.798m153.072.5c8.93 15.772-125.657 85.277-62.233 70.702 63.424-14.576-67.659 60.456-90.839 98.798m153.072.5c8.93 15.772-125.657 85.277-62.233 70.702 63.424-14.576-67.659 60.456-90.839 98.798m153.072.5c8.93 15.772-125.657 85.277-62.233 70.702 63.424-14.576-67.659 60.456-90.839 98.798m153.072.5c8.93 15.772-125.657 85.277-62.233 70.702 63.424-14.576-67.659 60.456-90.839 98.798M949.572 65c8.93 15.772-125.657 85.277-62.233 70.702 63.424-14.576-67.659 60.456-90.839 98.798m153.072.5c8.93 15.772-125.657 85.277-62.233 70.702 63.424-14.576-67.659 60.456-90.839 98.798m153.072.5c8.93 15.772-125.657 85.277-62.233 70.702 63.424-14.576-67.659 60.456-90.839 98.798m153.072.5c8.93 15.772-125.657 85.277-62.233 70.702 63.424-14.576-67.659 60.456-90.839 98.798m153.072.5c8.93 15.772-125.657 85.277-62.233 70.702 63.424-14.576-67.659 60.456-90.839 98.798"/>
</svg>
