<svg xmlns="http://www.w3.org/2000/svg" width="1024" height="1024" fill="none" viewBox="0 0 1024 1024">
    <path fill="#1E1E1E" d="M0 0h1024v1024H0z"/>
    <path stroke="#FF8F50" stroke-linecap="round" stroke-linejoin="round" stroke-width="10" d="M448.49 309.503C470.861 476.354 622.869 10.469 675.069 74.387c52.2 63.918-90.714-77.045-14.677 290.142m-25.728 292.914c-87.098-144.06-40.552 343.777-113.923 306.005-73.372-37.776 113.924 34.442-102.333-271.893"/>
    <path stroke="#FF8F50" stroke-linecap="round" stroke-linejoin="round" stroke-width="10" d="M699.141 470.579c-168.309 3.399 277.446 207.009 208.046 251.663-69.4 44.654 86.79-81.44-286.633-47.324M421.22 689.203C516.737 550.582 91.162 793.564 95.435 711.15c4.272-82.415 15.437 118.011 205.786-205.061m2.966-19.467C467.641 526.9 89.772 214.859 168.366 189.688c78.592-25.17-104.912 56.202 264.617 119.898m121.812-2.454c-67.146 154.373 303.901-165.751 315.521-84.048 11.619 81.703-37.793-112.857-162.618 240.735"/>
    <path stroke="#FF8F50" stroke-linecap="round" stroke-linejoin="round" stroke-width="10" d="M660.664 371.002C516.896 458.583 1004.58 410.401 967.048 483.9c-37.529 73.498 34.062-114.039-271.548 103.243M538.138 702.042c-.04-168.344-212.504 273.26-255.764 202.982-43.261-70.278 79.692 88.398 53.034-285.631"/>
    <path stroke="#FF8F50" stroke-linecap="round" stroke-linejoin="round" stroke-width="10" d="M689.501 576.472c-145.81-84.137 130.398 320.664 47.906 322.99-82.493 2.326 116.401-24.816-220.847-188.745M339.496 609.212c155.695-64.02-333.52-92.698-284.96-159.423 48.563-66.724-51.475 107.31 284.354-59.506m2.016-3.451c119.065 119.009-42.961-343.487 37.322-324.383 80.284 19.104-118.857-6.156 164.471 239.473"/>
</svg>
