<svg xmlns="http://www.w3.org/2000/svg" width="1024" height="1024" fill="none" viewBox="0 0 1024 1024">
    <path fill="#FF2323" d="M0 0h1024v1024H0z"/>
    <path stroke="#CCF232" stroke-width="8" d="M642.5 578c0 20.151-3.778 35.663-10.461 47.651-6.662 11.951-16.358 20.664-28.66 27.006C578.53 665.469 543.311 668.5 502 668.5c-40.123 0-71.226-15.85-92.372-41.577C388.41 601.109 377 565.072 377 524.5c0-40.553 11.394-72.835 32.436-94.956C430.45 407.452 461.556 395 502 395c39.496 0 74.558 25.004 99.948 60.85C627.313 491.659 642.5 537.611 642.5 578Z"/>
    <path stroke="#CCF232" stroke-width="8" d="M576.172 545.578c0 9.934-1.862 17.415-5.032 23.101-3.15 5.65-7.737 9.793-13.652 12.843-12.076 6.226-29.414 7.781-50.291 7.781-19.688 0-34.828-7.754-45.12-20.275-10.363-12.608-16.027-30.331-16.027-50.468 0-20.118 5.648-35.88 15.835-46.589 10.16-10.681 25.303-16.831 45.312-16.831 19.062 0 36.242 12.081 48.86 29.895 12.593 17.777 20.115 40.589 20.115 60.543Zm0-225c0 9.934-1.862 17.415-5.032 23.101-3.15 5.65-7.737 9.793-13.652 12.843-12.076 6.226-29.414 7.781-50.291 7.781-19.688 0-34.828-7.754-45.12-20.275-10.363-12.608-16.027-30.331-16.027-50.468 0-20.118 5.648-35.88 15.835-46.589 10.16-10.681 25.303-16.831 45.312-16.831 19.062 0 36.242 12.081 48.86 29.895 12.593 17.777 20.115 40.589 20.115 60.543Z"/>
    <path stroke="#CCF232" stroke-width="8" d="M613.818 213.98c0 15.732-2.95 27.772-8.114 37.034-5.143 9.226-12.63 15.964-22.169 20.882-19.326 9.964-46.813 12.357-79.287 12.357-31.287 0-55.486-12.349-71.939-32.366-16.524-20.103-25.449-48.221-25.449-79.956 0-31.715 8.909-56.854 25.257-74.04 16.32-17.157 40.523-26.884 72.131-26.884 30.659 0 57.988 19.415 77.856 47.463 19.841 28.012 31.714 63.958 31.714 95.51Zm79.414 207.834c-7.024 7.024-13.63 10.997-19.893 12.776-6.222 1.768-12.395 1.455-18.734-.572-12.942-4.136-26.301-15.297-41.063-30.059-13.922-13.922-19.145-30.109-17.568-46.241 1.587-16.243 10.114-32.78 24.353-47.019 14.225-14.225 29.365-21.377 44.141-21.746 14.736-.369 29.792 5.99 43.941 20.139 13.479 13.479 17.084 34.169 13.41 55.688-3.666 21.475-14.477 42.924-28.587 57.034Z"/>
    <path stroke="#CCF232" stroke-width="8" d="M795.244 372.988c-11.12 11.121-21.716 17.546-31.912 20.443-10.157 2.886-20.211 2.356-30.431-.911-20.703-6.617-41.823-24.355-64.778-47.31-22.115-22.114-30.491-47.948-27.972-73.727 2.529-25.889 16.096-52.073 38.528-74.505 22.418-22.418 46.485-33.889 70.188-34.482 23.663-.592 47.646 9.641 69.988 31.982 21.672 21.672 27.265 54.713 21.483 88.582-5.775 33.825-22.791 67.625-45.094 89.928Zm-90.823 203.184c-9.933 0-17.414-1.862-23.1-5.032-5.65-3.15-9.793-7.737-12.843-13.652-6.226-12.076-7.781-29.414-7.781-50.291 0-19.688 7.754-34.828 20.275-45.12 12.608-10.363 30.331-16.027 50.468-16.027 20.118 0 35.88 5.648 46.589 15.835 10.681 10.16 16.831 25.303 16.831 45.312 0 19.062-12.081 36.242-29.895 48.86-17.777 12.593-40.589 20.115-60.544 20.115Z"/>
    <path stroke="#CCF232" stroke-width="8" d="M811.02 613.818c-15.732 0-27.772-2.95-37.034-8.114-9.226-5.143-15.963-12.63-20.882-22.169-9.964-19.326-12.356-46.813-12.356-79.287 0-31.287 12.348-55.486 32.365-71.939 20.103-16.524 48.221-25.449 79.956-25.449 31.716 0 56.854 8.909 74.04 25.257 17.158 16.32 26.884 40.523 26.884 72.131 0 30.659-19.415 57.988-47.463 77.856-28.012 19.841-63.957 31.714-95.51 31.714Zm-207.834 79.414c-7.024-7.024-10.997-13.63-12.776-19.893-1.768-6.222-1.455-12.395.572-18.734 4.136-12.942 15.297-26.301 30.059-41.063 13.922-13.922 30.109-19.145 46.241-17.568 16.243 1.587 32.78 10.114 47.019 24.353 14.225 14.225 21.377 29.365 21.746 44.141.369 14.736-5.99 29.792-20.139 43.941-13.479 13.479-34.169 17.084-55.688 13.41-21.475-3.666-42.924-14.477-57.034-28.587Z"/>
    <path stroke="#CCF232" stroke-width="8" d="M652.012 795.244c-11.121-11.12-17.546-21.716-20.443-31.912-2.886-10.157-2.356-20.211.911-30.431 6.617-20.703 24.355-41.823 47.31-64.778 22.114-22.115 47.948-30.491 73.727-27.972 25.889 2.529 52.073 16.096 74.505 38.528 22.418 22.418 33.889 46.485 34.482 70.188.592 23.663-9.641 47.646-31.982 69.988-21.672 21.672-54.713 27.265-88.582 21.483-33.825-5.775-67.626-22.791-89.928-45.094Zm-75.84-24.666c0 9.934-1.862 17.415-5.032 23.101-3.15 5.65-7.737 9.793-13.652 12.843-12.076 6.226-29.414 7.781-50.291 7.781-19.688 0-34.828-7.754-45.12-20.275-10.363-12.608-16.027-30.331-16.027-50.468 0-20.118 5.648-35.88 15.835-46.589 10.16-10.681 25.303-16.831 45.312-16.831 19.062 0 36.242 12.081 48.86 29.895 12.593 17.777 20.115 40.589 20.115 60.543Z"/>
    <path stroke="#CCF232" stroke-width="8" d="M613.818 913.98c0 15.732-2.95 27.772-8.114 37.034-5.143 9.226-12.63 15.963-22.169 20.882-19.326 9.964-46.813 12.356-79.287 12.356-31.287 0-55.486-12.348-71.939-32.365-16.524-20.103-25.449-48.221-25.449-79.956 0-31.716 8.909-56.854 25.257-74.04 16.32-17.158 40.523-26.884 72.131-26.884 30.659 0 57.988 19.415 77.856 47.463 19.841 28.012 31.714 63.957 31.714 95.51ZM375.034 740.012c-7.024 7.024-13.631 10.997-19.893 12.776-6.222 1.768-12.395 1.454-18.734-.572-12.943-4.136-26.301-15.297-41.063-30.059-13.922-13.922-19.145-30.109-17.569-46.241 1.588-16.243 10.115-32.78 24.354-47.019 14.225-14.225 29.365-21.377 44.141-21.746 14.736-.369 29.792 5.99 43.941 20.139 13.478 13.479 17.084 34.169 13.41 55.688-3.666 21.475-14.477 42.924-28.587 57.034Z"/>
    <path stroke="#CCF232" stroke-width="8" d="M300.21 868.022c-11.12 11.12-21.715 17.545-31.912 20.442-10.157 2.886-20.211 2.356-30.43-.91-20.704-6.617-41.824-24.355-64.779-47.31-22.114-22.115-30.491-47.949-27.972-73.727 2.53-25.889 16.096-52.073 38.528-74.505 22.418-22.419 46.485-33.89 70.188-34.483 23.663-.591 47.647 9.641 69.988 31.983 21.672 21.671 27.266 54.712 21.483 88.582-5.775 33.825-22.791 67.625-45.094 89.928Zm-45.789-291.85c-9.933 0-17.414-1.862-23.1-5.032-5.65-3.15-9.793-7.737-12.843-13.652-6.226-12.076-7.781-29.414-7.781-50.291 0-19.688 7.754-34.828 20.275-45.12 12.608-10.363 30.331-16.027 50.468-16.027 20.118 0 35.88 5.648 46.589 15.835 10.681 10.16 16.831 25.303 16.831 45.312 0 19.062-12.081 36.242-29.895 48.86-17.777 12.593-40.589 20.115-60.544 20.115Z"/>
    <path stroke="#CCF232" stroke-width="8" d="M111.02 613.818c-15.732 0-27.772-2.95-37.034-8.114-9.226-5.143-15.964-12.63-20.882-22.169-9.964-19.326-12.356-46.813-12.356-79.287 0-31.287 12.348-55.486 32.365-71.939 20.103-16.524 48.221-25.449 79.956-25.449 31.716 0 56.854 8.909 74.04 25.257 17.158 16.32 26.884 40.523 26.884 72.131 0 30.659-19.415 57.988-47.463 77.856-28.012 19.841-63.957 31.714-95.51 31.714Zm173.968-238.784c-7.024-7.024-10.997-13.631-12.776-19.893-1.768-6.222-1.454-12.396.572-18.734 4.136-12.943 15.297-26.301 30.059-41.063 13.922-13.922 30.109-19.145 46.241-17.569 16.243 1.588 32.78 10.115 47.019 24.354 14.225 14.225 21.377 29.365 21.746 44.141.369 14.736-5.99 29.792-20.139 43.941-13.479 13.478-34.169 17.084-55.688 13.41-21.475-3.666-42.924-14.477-57.034-28.587Z"/>
    <path stroke="#CCF232" stroke-width="8" d="M156.978 300.21c-11.12-11.12-17.545-21.715-20.442-31.912-2.886-10.157-2.356-20.211.91-30.43 6.617-20.704 24.355-41.824 47.31-64.779 22.115-22.114 47.949-30.491 73.727-27.972 25.889 2.53 52.073 16.096 74.505 38.528 22.419 22.418 33.89 46.485 34.483 70.188.591 23.663-9.641 47.647-31.983 69.988-21.671 21.672-54.712 27.266-88.582 21.483-33.825-5.775-67.625-22.791-89.928-45.094Z"/>
</svg>
