<svg xmlns="http://www.w3.org/2000/svg" width="1024" height="1024" fill="none" viewBox="0 0 1024 1024">
    <path fill="#FF8F50" d="M0 0h1024v1024H0z"/>
    <path stroke="#000" stroke-linecap="round" stroke-width="10" d="M499.93 473.721c6.141-19.562-110.735-3.074-102.521-25.169 1.824-4.906 6.933-16.916 9.622-12.423 5.797 9.69 8.122 24.954 10.389 35.495 4.54 21.106 9.207 43.859 8.651 65.584-.131 5.151-.877 12.184-5.619 15.569-6.546 4.672-23.125-13.857-23.043-15.569.406-8.443 19.029-14.648 25.671-20.611 7.651-6.871 18.794-5.909 27.934-3.509 8.046 2.112 14.649 4.628 23.124 2.097 10.322-3.083 18.445-10.371 25.792-17.828 1.658-1.683 2.381-2.299 4.771-2.218 6.636.224 13.188 1.692 19.849.645 6.818-1.072 12.299-4.173 16.777-9.398 3.267-3.812 4.534-8.883 7.762-12.665 1.878-2.2 4.469-3.584 7.277-4.195 9.116-1.982 12.1 9.042 13.462 15.811 7.214 35.876-1.236 80.653-27.167 107.572-14.557 15.112-33.501 24.937-54.131 28.92-13.433 2.594-58.563 36.506-65.45 18.281-3.737-9.888 15.883-50.493 22.073-56.114 14.938-13.566 59.652 82.314 79.397 77.977 15.576-3.421 5.578-108.966 21.305-111.052 22.167-2.939 39.213 124.824 57.198 111.052 12.041-9.22 38.934-161.156 37.996-176.636-1.89-31.189-42.049-49.749-67.017-64.535-18.624-11.028-38.748-17.907-60.276-20.086-12.907-1.307-38.273-27.333-50.735-22.963-6.237 2.188 1.23 32.92 0 39.056-2.617 13.057 86.187-50.597 93.345-39.056 5.474 8.827-62.636 115.72-56.436 95.968Zm-43.285-219.325c-18.205 9.51 76.219 80.573 54.751 90.41-4.767 2.184-16.891 7.075-15.612 1.989 2.76-10.969 11.927-23.428 17.789-32.5 11.737-18.165 24.551-37.587 40.334-52.583 3.743-3.556 9.252-8.011 15.008-7.051 7.944 1.324 6.556 26.187 5.284 27.342-6.268 5.694-23.848-3.096-32.774-3.573-10.285-.55-17.492-9.119-22.263-17.291-4.199-7.192-7.092-13.649-14.885-17.856-9.491-5.124-20.404-5.712-30.888-5.631-2.367.019-3.315-.057-4.949-1.805-4.54-4.858-8.138-10.536-13.596-14.51-5.586-4.068-11.663-5.751-18.534-5.22-5.013.387-9.503 3.083-14.467 3.477-2.888.229-5.704-.626-8.123-2.18-7.858-5.05-2.162-14.972 1.67-20.731 20.306-30.522 58.008-56.259 95.436-56.971 21.01-.4 41.382 6.052 58.809 17.836 11.347 7.673 67.32 15.599 59.286 33.386-4.36 9.65-47.014 24.525-55.378 24.124-20.185-.965 16.08-100.542-.971-111.448-13.451-8.604-81.141 73.241-93.752 63.585-17.776-13.611 60.663-116.185 38.175-119.162-15.056-1.993-141.726 86.598-152.027 98.228-20.757 23.432-5.474 65.011 1.729 93.161 5.372 20.998 14.747 40.118 28.443 56.902 8.212 10.064 7.733 46.459 19.652 52.185 5.966 2.866 22.45-24.191 27.667-27.667 11.103-7.396-96.859-25.174-93.751-38.417 2.377-10.128 126.318-37.631 107.937-28.029Zm314.231 240.522c-9.51-18.204-80.574 76.219-90.41 54.752-2.185-4.768-7.076-16.892-1.989-15.612 10.968 2.759 23.427 11.926 32.499 17.788 18.165 11.738 37.588 24.551 52.584 40.335 3.556 3.742 8.01 9.252 7.051 15.007-1.325 7.944-26.188 6.556-27.343 5.284-5.693-6.268 3.096-23.848 3.573-32.774.55-10.284 9.12-17.491 17.291-22.262 7.192-4.2 13.65-7.092 17.857-14.885 5.124-9.492 5.711-20.405 5.63-30.889-.018-2.366.057-3.314 1.806-4.949 4.857-4.539 10.536-8.137 14.51-13.595 4.067-5.586 5.751-11.663 5.22-18.535-.388-5.013-3.083-9.503-3.477-14.467-.229-2.888.625-5.703 2.18-8.123 5.049-7.858 14.971-2.162 20.731 1.67 30.521 20.306 56.259 58.008 56.971 95.436.399 21.01-6.053 41.382-17.836 58.809-7.673 11.348-15.6 67.321-33.387 59.286-9.65-4.359-24.524-47.014-24.124-55.378.966-20.185 100.543 16.08 111.449-.971 8.603-13.451-73.242-81.14-63.586-93.751 13.612-17.776 116.186 60.663 119.163 38.174 1.993-15.056-86.599-141.726-98.228-152.027-23.433-20.757-65.012-5.473-93.162 1.729-20.997 5.372-40.117 14.747-56.902 28.444-10.063 8.212-46.458 7.733-52.184 19.651-2.866 5.966 24.191 22.45 27.666 27.667 7.397 11.103 25.174-96.859 38.418-93.751 10.128 2.378 37.631 126.319 28.029 107.937ZM456.645 771.876c-18.205-9.51 76.219-80.574 54.751-90.41-4.767-2.185-16.891-7.076-15.612-1.989 2.76 10.968 11.927 23.427 17.789 32.499 11.737 18.165 24.551 37.588 40.334 52.584 3.743 3.556 9.252 8.01 15.008 7.051 7.944-1.325 6.556-26.188 5.284-27.343-6.268-5.693-23.848 3.096-32.774 3.573-10.285.55-17.492 9.12-22.263 17.291-4.199 7.192-7.092 13.65-14.885 17.857-9.491 5.124-20.404 5.711-30.888 5.63-2.367-.018-3.315.057-4.949 1.806-4.54 4.857-8.138 10.536-13.596 14.51-5.586 4.067-11.663 5.751-18.534 5.22-5.013-.388-9.503-3.083-14.467-3.477-2.888-.229-5.704.625-8.123 2.18-7.858 5.049-2.162 14.971 1.67 20.731 20.306 30.521 58.008 56.259 95.436 56.97 21.01.4 41.382-6.052 58.809-17.835 11.347-7.673 67.32-15.6 59.286-33.387-4.36-9.65-47.014-24.524-55.378-24.124-20.185.966 16.08 100.543-.971 111.449-13.451 8.603-81.141-73.242-93.752-63.586-17.776 13.611 60.663 116.186 38.175 119.163-15.056 1.993-141.726-86.599-152.027-98.228-20.757-23.433-5.474-65.012 1.729-93.162 5.372-20.997 14.747-40.117 28.443-56.902 8.212-10.063 7.733-46.458 19.652-52.185 5.966-2.866 22.45 24.192 27.667 27.667 11.103 7.397-96.859 25.174-93.751 38.417 2.377 10.129 126.318 37.632 107.937 28.03ZM253.396 494.918c9.51-18.204 80.574 76.219 90.41 54.752 2.185-4.768 7.076-16.892 1.989-15.612-10.968 2.759-23.427 11.926-32.499 17.788-18.166 11.738-37.588 24.551-52.584 40.335-3.556 3.742-8.01 9.252-7.051 15.007 1.325 7.944 26.188 6.556 27.343 5.284 5.693-6.268-3.096-23.848-3.574-32.774-.549-10.284-9.119-17.491-17.29-22.262-7.192-4.2-13.65-7.092-17.857-14.885-5.124-9.492-5.711-20.405-5.63-30.889.018-2.366-.057-3.314-1.806-4.949-4.857-4.539-10.536-8.137-14.51-13.595-4.067-5.586-5.751-11.664-5.22-18.535.388-5.013 3.083-9.503 3.477-14.467.229-2.888-.625-5.703-2.18-8.123-5.05-7.858-14.971-2.162-20.731 1.67-30.521 20.306-56.259 58.008-56.971 95.436-.399 21.01 6.052 41.382 17.836 58.809 7.673 11.348 15.599 67.321 33.386 59.286 9.651-4.359 24.525-47.014 24.125-55.378-.966-20.185-100.543 16.08-111.449-.971-8.603-13.451 73.242-81.14 63.586-93.751-13.612-17.776-116.186 60.663-119.163 38.174-1.993-15.056 86.599-141.726 98.228-152.027 23.433-20.757 65.012-5.473 93.162 1.729 20.997 5.372 40.117 14.747 56.902 28.444 10.063 8.212 46.458 7.733 52.184 19.651 2.866 5.966-24.191 22.45-27.667 27.667-7.396 11.103-25.173-96.859-38.417-93.751-10.128 2.378-37.631 126.319-28.029 107.937Z"/>
</svg>
