<svg xmlns="http://www.w3.org/2000/svg" width="1024" height="1024" fill="none" viewBox="0 0 1024 1024">
    <path fill="#fff" d="M0 0h1024v1024H0z"/>
    <path stroke="#27074F" stroke-linecap="round" stroke-width="3" d="M222.933 403.504s7.096 4.465 9.414 5.679c16.698 8.746 34.945 9.821 53.401 8.314 8.478-.692 17.463-1.818 25.466-4.938 2.269-.885 5.969-2.353 6.305-4.704.416-2.916-2.285-3.565-5.482-3.811-3.41-.262-8.785-.497-11.421 2.187-2.975 3.03-2.484 11.568.103 14.61 8.05 9.465 21.707 6.517 31.022 1.389 18.945-10.428 45.509-31.852 74.711-9.671"/>
    <circle cx="2.876" cy="2.876" r="1.5" fill="#007AFF" stroke="#27074F" stroke-width="2.752" transform="matrix(-1 0 0 1 244.514 410.289)"/>
    <circle cx="1.991" cy="1.991" r="1.991" fill="#FF2323" transform="matrix(-1 0 0 1 225.046 400.997)"/>
    <path fill="#CCF232" stroke="#27074F" stroke-width="3" d="M281.065 418.032a1.818 1.818 0 1 1-3.636 0 1.818 1.818 0 0 1 3.636 0Z"/>
    <circle cx="320.837" cy="425.996" r="2.703" fill="#007AFF" stroke="#27074F" stroke-width="3"/>
    <path fill="#FF8F50" stroke="#27074F" stroke-width="3" d="M366.016 405.2a2.26 2.26 0 1 1-4.521 0 2.26 2.26 0 0 1 4.521 0Z"/>
    <circle cx="406.673" cy="412.722" r="2.433" fill="#FEE000"/>
    <path stroke="#27074F" stroke-linecap="round" stroke-width="3" d="M770.829 411.192s-6.293-5.539-8.387-7.108c-15.089-11.299-32.931-15.271-51.391-16.729-8.48-.669-17.529-.991-25.928.813-2.381.511-6.268 1.37-6.974 3.637-.877 2.812 1.686 3.884 4.803 4.637 3.325.803 8.594 1.893 11.624-.336 3.42-2.517 4.298-11.024 2.229-14.44-6.437-10.628-20.389-9.897-30.403-6.321-20.366 7.272-50.008 24.183-75.297-2.373"/>
    <circle cx="2.876" cy="2.876" r="1.5" fill="#007AFF" stroke="#27074F" stroke-width="2.752" transform="scale(1 -1) rotate(-9.181 -2122.187 -4874.829)"/>
    <circle cx="1.991" cy="1.991" r="1.991" fill="#FF2323" transform="scale(1 -1) rotate(-9.181 -2189.785 -4991.417)"/>
    <path fill="#CCF232" stroke="#27074F" stroke-width="3" d="M715.759 387.575a1.819 1.819 0 1 1 3.59.581 1.819 1.819 0 0 1-3.59-.581Z"/>
    <circle cx="677.767" cy="373.367" r="2.703" fill="#007AFF" stroke="#27074F" stroke-width="3" transform="rotate(-170.819 677.767 373.367)"/>
    <path fill="#FF8F50" stroke="#27074F" stroke-width="3" d="M629.849 386.688a2.26 2.26 0 1 1 4.464.721 2.26 2.26 0 1 1-4.464-.721Z"/>
    <circle cx="590.913" cy="372.775" r="2.433" fill="#FEE000" transform="rotate(-170.819 590.913 372.775)"/>
    <path stroke="#27074F" stroke-linecap="round" stroke-width="3" d="M775.654 484.24s-7.461-3.822-9.877-4.827c-17.403-7.242-35.674-6.706-53.926-3.579-8.385 1.436-17.235 3.349-24.932 7.163-2.182 1.081-5.739 2.868-5.866 5.24-.158 2.941 2.59 3.35 5.796 3.313 3.42-.039 8.795-.278 11.184-3.184 2.697-3.28 1.456-11.742-1.39-14.544-8.852-8.72-22.196-4.58-31.023 1.348-17.953 12.057-42.527 35.737-73.569 16.215"/>
    <circle cx="2.876" cy="2.876" r="1.5" fill="#007AFF" stroke="#27074F" stroke-width="2.752" transform="scale(1 -1) rotate(5.053 5808.765 8299.048)"/>
    <circle cx="1.991" cy="1.991" r="1.991" fill="#FF2323" transform="scale(1 -1) rotate(5.053 5904.307 8524.282)"/>
    <path fill="#CCF232" stroke="#27074F" stroke-width="3" d="M716.469 474.89a1.819 1.819 0 1 1 3.623-.321 1.819 1.819 0 0 1-3.623.321Z"/>
    <circle cx="676.15" cy="470.459" r="2.703" fill="#007AFF" stroke="#27074F" stroke-width="3" transform="rotate(174.947 676.15 470.459)"/>
    <path fill="#FF8F50" stroke="#27074F" stroke-width="3" d="M632.978 495.153a2.261 2.261 0 1 1 4.505-.398 2.261 2.261 0 0 1-4.505.398Z"/>
    <circle cx="591.816" cy="491.242" r="2.433" fill="#FEE000" transform="rotate(174.947 591.816 491.242)"/>
    <path stroke="#27074F" stroke-linecap="round" stroke-width="3" d="M773.971 508.203s-8.01-2.475-10.563-3.048c-18.393-4.127-36.297-.442-53.734 5.79-8.01 2.863-16.397 6.276-23.32 11.361-1.963 1.442-5.157 3.817-4.873 6.175.353 2.925 3.13 2.852 6.282 2.263 3.361-.63 8.615-1.794 10.466-5.068 2.089-3.698-.594-11.817-3.881-14.087-10.226-7.058-22.654-.676-30.325 6.688-15.6 14.976-35.714 42.545-69.662 28.679"/>
    <circle cx="2.876" cy="2.876" r="1.5" fill="#007AFF" stroke="#27074F" stroke-width="2.752" transform="scale(1 -1) rotate(15 2302.101 2599.99)"/>
    <circle cx="1.991" cy="1.991" r="1.991" fill="#FF2323" transform="scale(1 -1) rotate(15 2327.658 2678.57)"/>
    <path fill="#CCF232" stroke="#27074F" stroke-width="3" d="M714.059 509.216a1.818 1.818 0 1 1 3.513-.94 1.818 1.818 0 0 1-3.513.94Z"/>
    <circle cx="673.581" cy="511.817" r="2.703" fill="#007AFF" stroke="#27074F" stroke-width="3" transform="rotate(165 673.581 511.817)"/>
    <path fill="#FF8F50" stroke="#27074F" stroke-width="3" d="M635.324 543.597a2.26 2.26 0 1 1 4.367-1.171 2.26 2.26 0 0 1-4.367 1.171Z"/>
    <circle cx="594.105" cy="546.855" r="2.433" fill="#FEE000" transform="rotate(165 594.105 546.855)"/>
    <path stroke="#27074F" stroke-linecap="round" stroke-width="3" d="M280.532 773.93s8.377.318 10.991.211c18.834-.774 35.175-8.967 50.405-19.5 6.996-4.838 14.214-10.306 19.585-17.01 1.522-1.901 3.993-5.022 3.108-7.226-1.097-2.733-3.761-1.945-6.653-.559-3.084 1.478-7.857 3.962-8.797 7.604-1.062 4.112 3.632 11.26 7.394 12.601 11.704 4.172 22.057-5.209 27.56-14.308 11.193-18.503 23.486-50.339 59.866-45.731"/>
    <circle cx="2.876" cy="2.876" r="1.5" fill="#007AFF" stroke="#27074F" stroke-width="2.752" transform="scale(-1 1) rotate(30 -1586.309 -180.178)"/>
    <circle cx="1.991" cy="1.991" r="1.991" fill="#FF2323" transform="scale(-1 1) rotate(30 -1578.703 -139.204)"/>
    <path fill="#CCF232" stroke="#27074F" stroke-width="3" d="M338.139 757.445a1.819 1.819 0 1 1-3.15 1.819 1.819 1.819 0 0 1 3.15-1.819Z"/>
    <circle cx="376.565" cy="744.456" r="2.703" fill="#007AFF" stroke="#27074F" stroke-width="3" transform="rotate(-30 376.565 744.456)"/>
    <path fill="#FF8F50" stroke="#27074F" stroke-width="3" d="M405.293 703.857a2.26 2.26 0 1 1-3.915 2.262 2.26 2.26 0 0 1 3.915-2.262Z"/>
    <circle cx="444.264" cy="690.043" r="2.433" fill="#FEE000" transform="rotate(-30 444.264 690.043)"/>
    <path stroke="#27074F" stroke-linecap="round" stroke-width="3" d="M783.191 548.823s-8.04 2.374-10.483 3.311c-17.601 6.748-30.469 19.73-41.538 34.575-5.085 6.819-10.178 14.306-13.127 22.374-.836 2.287-2.181 6.033-.638 7.84 1.912 2.24 4.185.642 6.483-1.595 2.45-2.385 6.18-6.263 5.908-10.015-.307-4.236-7.038-9.511-11.031-9.581-12.424-.215-19.238 11.981-21.548 22.361-4.698 21.109-6.181 55.203-42.127 62.454"/>
    <circle cx="2.876" cy="2.876" r="1.5" fill="#007AFF" stroke="#27074F" stroke-width="2.752" transform="scale(1 -1) rotate(48.623 1002.303 565.128)"/>
    <circle cx="1.991" cy="1.991" r="1.991" fill="#FF2323" transform="scale(1 -1) rotate(48.623 1002.852 591.321)"/>
    <path fill="#CCF232" stroke="#27074F" stroke-width="3" d="M733.865 582.842a1.819 1.819 0 1 1 2.403-2.73 1.819 1.819 0 0 1-2.403 2.73Z"/>
    <circle cx="701.599" cy="607.422" r="2.703" fill="#007AFF" stroke="#27074F" stroke-width="3" transform="rotate(131.377 701.599 607.422)"/>
    <path fill="#FF8F50" stroke="#27074F" stroke-width="3" d="M687.34 655.069a2.26 2.26 0 1 1 2.987-3.393 2.26 2.26 0 0 1-2.987 3.393Z"/>
    <circle cx="654.821" cy="680.606" r="2.433" fill="#FEE000" transform="rotate(131.377 654.821 680.606)"/>
    <path stroke="#27074F" stroke-linecap="round" stroke-width="3" d="M432.108 214.993s4.894 6.807 6.584 8.804c12.179 14.387 28.68 22.251 46.347 27.801 8.115 2.549 16.863 4.887 25.452 5.008 2.435.034 6.415.067 7.611-1.985 1.484-2.545-.775-4.163-3.644-5.594-3.061-1.526-7.952-3.767-11.404-2.272-3.897 1.688-6.656 9.783-5.404 13.575 3.897 11.799 17.658 14.207 28.219 12.962 21.477-2.532 54.15-12.383 72.858 19.157"/>
    <circle cx="2.876" cy="2.876" r="1.5" fill="#007AFF" stroke="#27074F" stroke-width="2.752" transform="scale(-1 1) rotate(-22.108 362.36 1265.293)"/>
    <circle cx="1.991" cy="1.991" r="1.991" fill="#FF2323" transform="scale(-1 1) rotate(-22.108 328.846 1220.11)"/>
    <path fill="#CCF232" stroke="#27074F" stroke-width="3" d="M480.499 250.33a1.819 1.819 0 1 1-3.37-1.37 1.819 1.819 0 0 1 3.37 1.37Z"/>
    <circle cx="514.35" cy="272.677" r="2.703" fill="#007AFF" stroke="#27074F" stroke-width="3" transform="rotate(22.108 514.35 272.677)"/>
    <path fill="#FF8F50" stroke="#27074F" stroke-width="3" d="M564.033 270.414a2.26 2.26 0 1 1-4.188-1.701 2.26 2.26 0 0 1 4.188 1.701Z"/>
    <circle cx="598.87" cy="292.684" r="2.433" fill="#FEE000" transform="rotate(22.108 598.87 292.684)"/>
    <path stroke="#27074F" stroke-linecap="round" stroke-width="3" d="M774.114 350.05s-2.036-8.132-2.871-10.612c-6.009-17.866-18.445-31.264-32.816-42.942-6.602-5.364-13.869-10.764-21.808-14.047-2.25-.93-5.938-2.429-7.806-.963-2.318 1.817-.816 4.155 1.323 6.543 2.281 2.548 6 6.436 9.76 6.321 4.245-.131 9.796-6.636 10.032-10.623.732-12.404-11.17-19.721-21.444-22.461-20.896-5.572-54.898-8.473-60.647-44.69"/>
    <circle cx="2.876" cy="2.876" r="1.5" fill="#007AFF" stroke="#27074F" stroke-width="2.752" transform="scale(1 -1) rotate(-43.762 -29.507 -1115.299)"/>
    <circle cx="1.991" cy="1.991" r="1.991" fill="#FF2323" transform="scale(1 -1) rotate(-43.762 -50.81 -1134.89)"/>
    <path fill="#CCF232" stroke="#27074F" stroke-width="3" d="M742.179 299.35a1.818 1.818 0 1 1 2.627 2.515 1.818 1.818 0 0 1-2.627-2.515Z"/>
    <circle cx="718.963" cy="266.089" r="2.703" fill="#007AFF" stroke="#27074F" stroke-width="3" transform="rotate(-136.238 718.963 266.089)"/>
    <path fill="#FF8F50" stroke="#27074F" stroke-width="3" d="M671.951 249.859a2.26 2.26 0 1 1 3.266 3.127 2.26 2.26 0 0 1-3.266-3.127Z"/>
    <circle cx="647.79" cy="216.305" r="2.433" fill="#FEE000" transform="rotate(-136.238 647.79 216.305)"/>
    <path stroke="#27074F" stroke-linecap="round" stroke-width="3" d="M406.716 413.241s7.096 4.464 9.414 5.678c16.698 8.747 34.945 9.822 53.402 8.315 8.478-.692 17.462-1.818 25.465-4.939 2.269-.884 5.969-2.352 6.305-4.703.417-2.916-2.285-3.565-5.482-3.811-3.41-.262-8.785-.498-11.421 2.187-2.975 3.03-2.484 11.568.103 14.61 8.05 9.465 21.707 6.517 31.022 1.389 18.945-10.428 45.509-31.852 74.711-9.671"/>
    <circle cx="2.876" cy="2.876" r="1.5" fill="#007AFF" stroke="#27074F" stroke-width="2.752" transform="matrix(-1 0 0 1 428.297 420.025)"/>
    <circle cx="1.991" cy="1.991" r="1.991" fill="#FF2323" transform="matrix(-1 0 0 1 408.829 410.734)"/>
    <path fill="#CCF232" stroke="#27074F" stroke-width="3" d="M464.848 427.769a1.818 1.818 0 1 1-3.636 0 1.818 1.818 0 0 1 3.636 0Z"/>
    <circle cx="504.62" cy="435.733" r="2.703" fill="#007AFF" stroke="#27074F" stroke-width="3"/>
    <path fill="#FF8F50" stroke="#27074F" stroke-width="3" d="M549.799 414.937a2.26 2.26 0 1 1-4.521 0 2.26 2.26 0 0 1 4.521 0Z"/>
    <circle cx="590.456" cy="422.459" r="2.433" fill="#FEE000"/>
    <path stroke="#27074F" stroke-linecap="round" stroke-width="3" d="M590.954 372.257s-6.293-5.54-8.387-7.108c-15.089-11.299-32.931-15.271-51.392-16.729-8.479-.669-17.528-.991-25.927.813-2.381.511-6.268 1.37-6.974 3.637-.877 2.812 1.686 3.884 4.803 4.637 3.324.803 8.593 1.893 11.623-.336 3.421-2.517 4.299-11.024 2.23-14.44-6.437-10.629-20.389-9.897-30.403-6.321-20.366 7.272-50.008 24.183-75.297-2.373"/>
    <circle cx="2.876" cy="2.876" r="1.5" fill="#007AFF" stroke="#27074F" stroke-width="2.752" transform="scale(1 -1) rotate(-9.181 -1969.663 -3735.208)"/>
    <circle cx="1.991" cy="1.991" r="1.991" fill="#FF2323" transform="scale(1 -1) rotate(-9.181 -2037.26 -3851.796)"/>
    <path fill="#CCF232" stroke="#27074F" stroke-width="3" d="M535.884 348.64a1.819 1.819 0 1 1 3.59.581 1.819 1.819 0 0 1-3.59-.581Z"/>
    <circle cx="497.892" cy="334.432" r="2.703" fill="#007AFF" stroke="#27074F" stroke-width="3" transform="rotate(-170.819 497.892 334.432)"/>
    <path fill="#FF8F50" stroke="#27074F" stroke-width="3" d="M449.974 347.753a2.26 2.26 0 1 1 4.462.72 2.26 2.26 0 0 1-4.462-.72Z"/>
    <circle cx="411.038" cy="333.84" r="2.433" fill="#FEE000" transform="rotate(-170.819 411.038 333.84)"/>
    <path stroke="#27074F" stroke-linecap="round" stroke-width="3" d="M591.728 490.728s-7.462-3.822-9.877-4.827c-17.404-7.242-35.675-6.705-53.927-3.579-8.384 1.436-17.234 3.35-24.932 7.163-2.182 1.081-5.738 2.869-5.866 5.24-.158 2.942 2.59 3.35 5.796 3.314 3.42-.04 8.796-.279 11.184-3.184 2.697-3.281 1.457-11.743-1.389-14.545-8.853-8.719-22.196-4.58-31.024 1.349-17.953 12.056-42.526 35.736-73.568 16.214"/>
    <circle cx="2.876" cy="2.876" r="1.5" fill="#007AFF" stroke="#27074F" stroke-width="2.752" transform="scale(1 -1) rotate(5.053 5790.318 6211.69)"/>
    <circle cx="1.991" cy="1.991" r="1.991" fill="#FF2323" transform="scale(1 -1) rotate(5.053 5885.872 6436.935)"/>
    <path fill="#CCF232" stroke="#27074F" stroke-width="3" d="M532.542 481.378a1.82 1.82 0 1 1 3.621-.32 1.82 1.82 0 0 1-3.621.32Z"/>
    <circle cx="492.223" cy="476.947" r="2.703" fill="#007AFF" stroke="#27074F" stroke-width="3" transform="rotate(174.947 492.223 476.947)"/>
    <path fill="#FF8F50" stroke="#27074F" stroke-width="3" d="M449.051 501.642a2.262 2.262 0 1 1 4.507-.398 2.262 2.262 0 0 1-4.507.398Z"/>
    <circle cx="407.89" cy="497.73" r="2.433" fill="#FEE000" transform="rotate(174.947 407.89 497.73)"/>
    <path stroke="#27074F" stroke-linecap="round" stroke-width="3" d="M593.93 546.365s-8.01-2.476-10.563-3.048c-18.393-4.127-36.297-.443-53.734 5.789-8.01 2.863-16.397 6.277-23.32 11.362-1.963 1.442-5.157 3.817-4.872 6.175.352 2.924 3.129 2.852 6.281 2.262 3.361-.629 8.615-1.793 10.466-5.068 2.089-3.697-.594-11.817-3.881-14.086-10.226-7.059-22.654-.676-30.325 6.687-15.6 14.977-35.714 42.546-69.662 28.679"/>
    <circle cx="2.876" cy="2.876" r="1.5" fill="#007AFF" stroke="#27074F" stroke-width="2.752" transform="scale(1 -1) rotate(15 2357.015 1897.135)"/>
    <circle cx="1.991" cy="1.991" r="1.991" fill="#FF2323" transform="scale(1 -1) rotate(15 2382.569 1975.72)"/>
    <path fill="#CCF232" stroke="#27074F" stroke-width="3" d="M534.018 547.378a1.82 1.82 0 1 1 3.515-.94 1.82 1.82 0 0 1-3.515.94Z"/>
    <circle cx="493.54" cy="549.979" r="2.703" fill="#007AFF" stroke="#27074F" stroke-width="3" transform="rotate(165 493.54 549.979)"/>
    <path fill="#FF8F50" stroke="#27074F" stroke-width="3" d="M455.283 581.759a2.26 2.26 0 1 1 4.367-1.17 2.26 2.26 0 0 1-4.367 1.17Z"/>
    <circle cx="414.064" cy="585.017" r="2.433" fill="#FEE000" transform="rotate(165 414.064 585.017)"/>
    <path stroke="#27074F" stroke-linecap="round" stroke-width="3" d="M444.561 690.471s8.377.318 10.991.211c18.835-.774 35.175-8.967 50.405-19.5 6.996-4.838 14.214-10.306 19.585-17.01 1.522-1.901 3.993-5.022 3.108-7.226-1.097-2.733-3.761-1.945-6.653-.559-3.084 1.478-7.857 3.962-8.797 7.604-1.062 4.112 3.632 11.261 7.394 12.601 11.704 4.172 22.057-5.209 27.561-14.308 11.192-18.503 23.485-50.339 59.865-45.731"/>
    <circle cx="2.876" cy="2.876" r="1.5" fill="#007AFF" stroke="#27074F" stroke-width="2.752" transform="scale(-1 1) rotate(30 -1512.586 -527.99)"/>
    <circle cx="1.991" cy="1.991" r="1.991" fill="#FF2323" transform="scale(-1 1) rotate(30 -1504.981 -487.015)"/>
    <path fill="#CCF232" stroke="#27074F" stroke-width="3" d="M502.168 673.986a1.819 1.819 0 1 1-3.15 1.819 1.819 1.819 0 0 1 3.15-1.819Z"/>
    <circle cx="540.594" cy="660.997" r="2.703" fill="#007AFF" stroke="#27074F" stroke-width="3" transform="rotate(-30 540.594 660.997)"/>
    <path fill="#FF8F50" stroke="#27074F" stroke-width="3" d="M569.323 620.398a2.262 2.262 0 1 1-3.919 2.26 2.262 2.262 0 0 1 3.919-2.26Z"/>
    <circle cx="608.294" cy="606.584" r="2.433" fill="#FEE000" transform="rotate(-30 608.294 606.584)"/>
    <path stroke="#27074F" stroke-linecap="round" stroke-width="3" d="M654.403 680.294s-8.04 2.374-10.483 3.31c-17.601 6.749-30.469 19.731-41.538 34.576-5.085 6.819-10.179 14.305-13.127 22.373-.836 2.288-2.181 6.034-.638 7.84 1.912 2.24 4.185.642 6.483-1.594 2.45-2.385 6.18-6.264 5.908-10.015-.307-4.236-7.038-9.511-11.031-9.581-12.424-.216-19.239 11.981-21.548 22.36-4.698 21.11-6.181 55.204-42.127 62.455"/>
    <circle cx="2.876" cy="2.876" r="1.5" fill="#007AFF" stroke="#27074F" stroke-width="2.752" transform="scale(1 -1) rotate(48.623 1083.416 356.854)"/>
    <circle cx="1.991" cy="1.991" r="1.991" fill="#FF2323" transform="scale(1 -1) rotate(48.623 1083.967 383.046)"/>
    <path fill="#CCF232" stroke="#27074F" stroke-width="3" d="M605.077 714.312a1.817 1.817 0 1 1 2.404-2.729 1.82 1.82 0 0 1-2.404 2.729Z"/>
    <circle cx="572.811" cy="738.893" r="2.703" fill="#007AFF" stroke="#27074F" stroke-width="3" transform="rotate(131.377 572.811 738.893)"/>
    <path fill="#FF8F50" stroke="#27074F" stroke-width="3" d="M558.552 786.54a2.26 2.26 0 1 1 2.987-3.393 2.26 2.26 0 0 1-2.987 3.393Z"/>
    <circle cx="526.033" cy="812.076" r="2.433" fill="#FEE000" transform="rotate(131.377 526.033 812.076)"/>
    <path stroke="#27074F" stroke-linecap="round" stroke-width="3" d="M598.715 293.18s4.894 6.807 6.584 8.804c12.179 14.388 28.68 22.251 46.346 27.801 8.116 2.55 16.863 4.887 25.453 5.009 2.435.034 6.415.067 7.611-1.985 1.483-2.545-.775-4.163-3.644-5.594-3.061-1.526-7.953-3.768-11.405-2.273-3.897 1.688-6.655 9.783-5.403 13.576 3.896 11.798 17.658 14.206 28.218 12.962 21.477-2.532 54.151-12.384 72.858 19.156"/>
    <circle cx="2.876" cy="2.876" r="1.5" fill="#007AFF" stroke="#27074F" stroke-width="2.752" transform="scale(-1 1) rotate(-22.108 479.174 1730.807)"/>
    <circle cx="1.991" cy="1.991" r="1.991" fill="#FF2323" transform="scale(-1 1) rotate(-22.108 445.66 1685.625)"/>
    <path fill="#CCF232" stroke="#27074F" stroke-width="3" d="M647.105 328.517a1.818 1.818 0 1 1-3.37-1.366 1.818 1.818 0 0 1 3.37 1.366Z"/>
    <circle cx="680.956" cy="350.864" r="2.703" fill="#007AFF" stroke="#27074F" stroke-width="3" transform="rotate(22.108 680.956 350.864)"/>
    <path fill="#FF8F50" stroke="#27074F" stroke-width="3" d="M730.64 348.601a2.261 2.261 0 1 1-4.19-1.702 2.261 2.261 0 0 1 4.19 1.702Z"/>
    <circle cx="765.477" cy="370.871" r="2.433" fill="#FEE000" transform="rotate(22.108 765.477 370.871)"/>
    <path stroke="#27074F" stroke-linecap="round" stroke-width="3" d="M590.499 422.978s7.096 4.464 9.414 5.678c16.698 8.747 34.945 9.822 53.402 8.315 8.478-.692 17.462-1.818 25.465-4.939 2.269-.884 5.969-2.352 6.305-4.703.417-2.916-2.285-3.565-5.482-3.811-3.41-.262-8.785-.498-11.421 2.186-2.975 3.031-2.484 11.569.103 14.611 8.05 9.465 21.707 6.517 31.022 1.389 18.946-10.428 45.509-31.852 74.711-9.672"/>
    <circle cx="2.876" cy="2.876" r="1.5" fill="#007AFF" stroke="#27074F" stroke-width="2.752" transform="matrix(-1 0 0 1 612.08 429.762)"/>
    <circle cx="1.991" cy="1.991" r="1.991" fill="#FF2323" transform="matrix(-1 0 0 1 592.612 420.471)"/>
    <path fill="#CCF232" stroke="#27074F" stroke-width="3" d="M648.631 437.505a1.818 1.818 0 1 1-3.637.001 1.818 1.818 0 0 1 3.637-.001Z"/>
    <circle cx="688.403" cy="445.469" r="2.703" fill="#007AFF" stroke="#27074F" stroke-width="3"/>
    <path fill="#FF8F50" stroke="#27074F" stroke-width="3" d="M733.582 424.674a2.26 2.26 0 1 1-4.521 0 2.26 2.26 0 0 1 4.521 0Z"/>
    <circle cx="774.239" cy="432.196" r="2.433" fill="#FEE000"/>
    <path stroke="#27074F" stroke-linecap="round" stroke-width="3" d="M411.078 333.321s-6.292-5.539-8.387-7.107c-15.088-11.299-32.93-15.272-51.391-16.729-8.48-.67-17.529-.991-25.927.812-2.381.512-6.268 1.37-6.975 3.637-.876 2.813 1.687 3.884 4.804 4.637 3.324.803 8.593 1.893 11.623-.336 3.421-2.517 4.299-11.024 2.23-14.44-6.437-10.628-20.389-9.896-30.403-6.321-20.366 7.272-50.008 24.183-75.297-2.372"/>
    <circle cx="2.876" cy="2.876" r="1.5" fill="#007AFF" stroke="#27074F" stroke-width="2.752" transform="scale(1 -1) rotate(-9.181 -1817.132 -2595.593)"/>
    <circle cx="1.991" cy="1.991" r="1.991" fill="#FF2323" transform="scale(1 -1) rotate(-9.181 -1884.73 -2712.18)"/>
    <path fill="#CCF232" stroke="#27074F" stroke-width="3" d="M356.009 309.705a1.818 1.818 0 1 1 3.59.58 1.818 1.818 0 0 1-3.59-.58Z"/>
    <circle cx="318.017" cy="295.497" r="2.703" fill="#007AFF" stroke="#27074F" stroke-width="3" transform="rotate(-170.819 318.017 295.497)"/>
    <path fill="#FF8F50" stroke="#27074F" stroke-width="3" d="M270.099 308.817a2.261 2.261 0 1 1 4.464.722 2.261 2.261 0 0 1-4.464-.722Z"/>
    <circle cx="231.163" cy="294.905" r="2.433" fill="#FEE000" transform="rotate(-170.819 231.163 294.905)"/>
    <path stroke="#27074F" stroke-linecap="round" stroke-width="3" d="M407.802 497.218s-7.462-3.823-9.878-4.828c-17.403-7.242-35.674-6.705-53.926-3.579-8.384 1.437-17.235 3.35-24.932 7.163-2.182 1.081-5.738 2.869-5.866 5.241-.158 2.941 2.59 3.349 5.796 3.313 3.42-.039 8.795-.278 11.184-3.184 2.697-3.281 1.456-11.742-1.389-14.545-8.853-8.719-22.197-4.579-31.024 1.349-17.953 12.056-42.527 35.737-73.569 16.215"/>
    <circle cx="2.876" cy="2.876" r="1.5" fill="#007AFF" stroke="#27074F" stroke-width="2.752" transform="scale(1 -1) rotate(5.053 5771.884 4124.343)"/>
    <circle cx="1.991" cy="1.991" r="1.991" fill="#FF2323" transform="scale(1 -1) rotate(5.053 5867.438 4349.588)"/>
    <path fill="#CCF232" stroke="#27074F" stroke-width="3" d="M348.616 487.867a1.818 1.818 0 1 1 3.621-.32 1.818 1.818 0 0 1-3.621.32Z"/>
    <circle cx="308.297" cy="483.437" r="2.703" fill="#007AFF" stroke="#27074F" stroke-width="3" transform="rotate(174.947 308.297 483.437)"/>
    <path fill="#FF8F50" stroke="#27074F" stroke-width="3" d="M265.125 508.131a2.26 2.26 0 1 1 4.503-.399 2.26 2.26 0 0 1-4.503.399Z"/>
    <circle cx="223.963" cy="504.22" r="2.433" fill="#FEE000" transform="rotate(174.947 223.963 504.22)"/>
    <path stroke="#27074F" stroke-linecap="round" stroke-width="3" d="M413.889 584.527s-8.01-2.476-10.563-3.049c-18.393-4.127-36.296-.442-53.734 5.79-8.01 2.863-16.397 6.276-23.32 11.362-1.962 1.441-5.156 3.817-4.872 6.175.352 2.924 3.129 2.852 6.281 2.262 3.362-.629 8.615-1.793 10.466-5.068 2.089-3.697-.594-11.817-3.881-14.086-10.226-7.059-22.654-.677-30.324 6.687-15.601 14.977-35.715 42.546-69.663 28.679"/>
    <circle cx="2.876" cy="2.876" r="1.5" fill="#007AFF" stroke="#27074F" stroke-width="2.752" transform="scale(1 -1) rotate(15 2411.93 1194.28)"/>
    <circle cx="1.991" cy="1.991" r="1.991" fill="#FF2323" transform="scale(1 -1) rotate(15 2437.483 1272.866)"/>
    <path fill="#CCF232" stroke="#27074F" stroke-width="3" d="M353.978 585.54a1.818 1.818 0 1 1 3.512-.942 1.818 1.818 0 0 1-3.512.942Z"/>
    <circle cx="313.499" cy="588.141" r="2.703" fill="#007AFF" stroke="#27074F" stroke-width="3" transform="rotate(165 313.499 588.141)"/>
    <path fill="#FF8F50" stroke="#27074F" stroke-width="3" d="M275.242 619.92a2.262 2.262 0 1 1 4.37-1.169 2.262 2.262 0 0 1-4.37 1.169Z"/>
    <circle cx="234.023" cy="623.178" r="2.433" fill="#FEE000" transform="rotate(165 234.023 623.178)"/>
    <path stroke="#27074F" stroke-linecap="round" stroke-width="3" d="M608.59 607.012s8.377.318 10.992.211c18.834-.775 35.174-8.968 50.404-19.501 6.997-4.838 14.214-10.306 19.585-17.01 1.523-1.9 3.993-5.021 3.108-7.225-1.097-2.734-3.761-1.945-6.652-.56-3.085 1.478-7.858 3.962-8.798 7.604-1.061 4.112 3.632 11.261 7.394 12.602 11.705 4.172 22.057-5.21 27.561-14.308 11.193-18.504 23.486-50.339 59.865-45.731"/>
    <circle cx="2.876" cy="2.876" r="1.5" fill="#007AFF" stroke="#27074F" stroke-width="2.752" transform="scale(-1 1) rotate(30 -1438.864 -875.801)"/>
    <circle cx="1.991" cy="1.991" r="1.991" fill="#FF2323" transform="scale(-1 1) rotate(30 -1431.26 -834.827)"/>
    <path fill="#CCF232" stroke="#27074F" stroke-width="3" d="M666.198 590.527a1.819 1.819 0 1 1-3.15 1.818 1.819 1.819 0 0 1 3.15-1.818Z"/>
    <circle cx="704.623" cy="577.538" r="2.703" fill="#007AFF" stroke="#27074F" stroke-width="3" transform="rotate(-30 704.623 577.538)"/>
    <path fill="#FF8F50" stroke="#27074F" stroke-width="3" d="M733.352 536.939a2.26 2.26 0 1 1-3.915 2.26 2.26 2.26 0 0 1 3.915-2.26Z"/>
    <circle cx="772.323" cy="523.125" r="2.433" fill="#FEE000" transform="rotate(-30 772.323 523.125)"/>
    <path stroke="#27074F" stroke-linecap="round" stroke-width="3" d="M721.215 757.683s6.445-5.361 8.318-7.188c13.494-13.162 20.175-30.177 24.467-48.19 1.971-8.275 3.687-17.165 3.202-25.742-.137-2.431-.385-6.404-2.516-7.452-2.643-1.301-4.098 1.066-5.323 4.029-1.307 3.16-3.198 8.198-1.463 11.536 1.958 3.768 10.227 5.95 13.922 4.433 11.495-4.717 12.927-18.615 10.941-29.061-4.038-21.245-16.167-53.144 13.976-74.027"/>
    <circle cx="2.876" cy="2.876" r="1.5" fill="#007AFF" stroke="#27074F" stroke-width="2.752" transform="scale(-1 1) rotate(71.932 -876.57 -136.37)"/>
    <circle cx="1.991" cy="1.991" r="1.991" fill="#FF2323" transform="scale(-1 1) rotate(71.932 -879.9 -118.31)"/>
    <path fill="#CCF232" stroke="#27074F" stroke-width="3" d="M753.055 706.923a1.819 1.819 0 1 1-1.128 3.458 1.819 1.819 0 0 1 1.128-3.458Z"/>
    <circle cx="772.961" cy="671.582" r="2.703" fill="#007AFF" stroke="#27074F" stroke-width="3" transform="rotate(-71.933 772.961 671.582)"/>
    <path fill="#FF8F50" stroke="#27074F" stroke-width="3" d="M767.203 622.181a2.261 2.261 0 1 1-1.403 4.299 2.261 2.261 0 0 1 1.403-4.299Z"/>
    <circle cx="786.963" cy="585.862" r="2.433" fill="#FEE000" transform="rotate(-71.933 786.963 585.862)"/>
</svg>
