<svg xmlns="http://www.w3.org/2000/svg" width="1024" height="1024" fill="none" viewBox="0 0 1024 1024">
    <path fill="#F036CE" d="M0 0h1024v1024H0z"/>
    <path stroke="#CCF232" stroke-width="8" d="M733.873 615.398c0 32.053-6.416 56.918-17.924 76.25-11.493 19.308-28.24 33.391-49.41 43.614-42.581 20.559-102.617 25.313-172.238 25.313-68.522 0-121.757-25.39-157.907-66.577-36.206-41.252-55.538-98.661-55.538-163.055 0-64.367 19.31-115.926 55.338-151.398 36.034-35.478 89.283-55.344 158.107-55.344 67.918 0 127.754 40.24 170.787 97.134 43.028 56.888 68.785 129.855 68.785 194.063Z"/>
</svg>
