<svg xmlns="http://www.w3.org/2000/svg" width="2100" height="2100" fill="none" viewBox="0 0 2100 2100">
    <path fill="#FFD363" d="m165.85 1150.04 415.62-910.33c60.9-133.39 218.4-192.15 351.79-131.25l903.26 412.39c133.39 60.9 192.15 218.4 131.25 351.79l-415.62 910.33c-60.9 133.39-218.4 192.15-351.79 131.25L297.1 1501.83c-133.39-60.9-192.15-218.4-131.25-351.79Z"/>
    <path fill="#fff" d="M1246.16 196.24c34.21-17.06 60.35-49.53 69.72-86.59-40.18 8.35-74.85 39.33-87.65 78.32-43.89-42.32-112.67-49.64-171.58-33.95-58.91 15.69-110.42 50.85-160.65 85.41-12.62 8.69-25.53 17.65-34.31 30.21-8.78 12.56-12.7 29.68-5.85 43.39-64.56 60.96-96.08 155-81.3 242.56 14.79 87.55 75.45 166.03 152.39 203.54-6.09 30.33-1.16 62.76 13.67 89.91-10.73-2.15-21.8 3.89-28.56 12.49-6.76 8.6-10.02 19.38-12.79 29.96-8.93 34.07-14.34 69.07-16.45 107.78-12.44-13.35-13.64-36.86-30.26-44.41-7.94-3.61-17.44-2.16-25.25 1.73-7.8 3.9-14.25 9.99-20.58 16-.75-13.43-14.26-23.79-27.71-24.01-13.45-.22-25.98 7.74-34.52 18.13-8.54 10.39-13.76 23.04-21.39 35.8-.38-66.94 6.26-133.91 19.14-199.12-134.41-2.16-269.1 14.43-403.25 52.59-4.58 20.92-9.17 41.84-13.75 62.76-.95 4.34-1.93 8.77-4.18 12.61-4.1 7.02-11.73 11.05-18.97 14.73-27.06 13.75-54.12 27.5-85.17 43.36 19.34 44.53 38.68 89.06 58.02 133.6-13.47 5.92-26.94 11.84-40.41 17.75 7.7 19.09 15.39 38.19 14.69 56.33 5.05 24.05 16.32 46.76 32.41 65.33-59.38 25.55-118.76 51.09-178.15 76.64-1.6 13.59-3.17 27.59.57 40.75 3.74 13.16 14.16 25.4 29.36 27.38-15.64 12.52-16.68 35.51-16.4 55.54 2.36 169.15 4.71 338.29-3.35 512.38 629.84-5.82 1259.68-11.64 1891.48-21.7 9.29-43.05-21.43-84.39-25.53-128.24-1.77-18.95 1.5-37.97 4.77-56.73 9.8-56.33 19.6-112.65 30.54-170.74 8.37-84.75 4.02-170.75-13.87-253.22-15.55-123.56-39.28-246.09-78.42-364.07-62.73-59.34-141.38-98.86-220.65-133.1-79.27-34.24-160.8-64.29-237.99-109.34 16.95-30.24 23.15-66.37 18.88-101.01 1.53-96.52-7.34-193.21-26.41-287.84 12.17 7.9 24.34 15.8 36.51 23.69-45.34-77.75-115.59-140.71-197.82-177.31 3.05-1.22 6.1-2.45 9.15-3.67-18.8-2.33-38.23.59-58.13 4.38Z"/>
    <path fill="#fff" d="M1919.05 424.78c-96.3 26.91-182.14 89.64-244.17 175.41a946.35 946.35 0 0 0 4.97 168.46c87.68-67.22 184.21-122.89 285.68-166.18-8.58-62.48-24.92-123.9-46.48-177.69ZM114.79 377.19c107.53-7.25 216.51 7.57 319.87 42.68 69.38 94.25 120.58 201.84 151.11 317.53-97.88-24.73-197.36-43.13-298.55-54.26-32.18-114-93.26-219.71-172.43-305.95Zm530.41 10.86c-12.54-21.61-32.31-38.93-55.37-48.53-4.07-1.69-8.76-3.14-12.78-1.33-6.2 2.8-6.81 12.08-2.87 17.63 3.94 5.55 10.67 8.27 17.03 10.71 19.06 7.33 38.13 14.64 53.99 21.52Zm-4.24 98.74c-14.16 17.38-38.63 25.63-60.43 20.39-4.62-1.11-9.24-2.86-12.69-6.12-3.45-3.26-5.53-8.3-4.26-12.87 1.62-5.83 7.79-9.05 13.55-10.9 20.21-6.48 43.1-4.05 63.83 9.5Z"/>
    <path fill="#000" d="M1295.82 678.01c4.01 3.66 4.84 9.95 3.45 14.99-.46 2.98-3.7 7.5-6.74 4.29-24.93-30.17-42.34-51.42-84.67-52.08-18.27.3-40.72 5.48-48.51 24.02-2.8 4.21-2.93 15.72-8.02 16.2-9.3-3.67-3.54-19.8-.65-26.55 7.12-22.46 30.82-32.84 52.89-33.51 27.08-1.43 54.35 9.34 72.33 29.79 7.05 7.23 13.34 15.19 19.92 22.85Zm-285.86-7.09c7.19 10.82.21 29.18-6.05 14.6-7.64-16.22-23.32-30.16-41.52-32.35-13.24-.83-25.98 7.39-32 19-2.93 5.98-4.22 12.56-5.06 19.12-.46 3.56-.46 13.08-6.19 10.97-9.38-6.91-.77-35.46 3.49-44.52 23.18-43.08 69.53-23.06 87.33 13.18Z"/>
    <path fill="#000" d="M1203.62 746.56c21.42-1.91 23.51-31.85 11.03-45.09-2.75-2.52-5.96-3.84-9.69-4.54-3.12-.59-6.43-1.22-7.84-4.47-16.99 9.47-16.42 52.69 6.5 54.1Zm22.46-48.81c11.75 21.91 10.77 70.56-23.22 68.17-29.47-10.33-33.14-53.56-22.95-78.92 3.59-8.11 10.94-15.89 20.35-16 7.78.23 13.64 6.82 16.87 13.36 3.69 3.99 6.61 8.49 8.95 13.39Zm-240.25 45.53c10.91-2.54 12.41-18.97 9.98-28.07-2.3-4.58-6.91-7.77-10.57-11.29-2.2-2.34-4.17-4.91-7.8-4.59-13.24 2.31-13.63 19.94-7.79 29.37 3.8 5.93 8.52 13.82 16.18 14.58Zm12.67-45.76c7.71 9.66 9.38 23.11 8.8 35.09-.91 11.62-5.12 29.94-19.46 30.34-18.08-3.56-29.71-28.73-31.91-45.47-2.18-14.27 1.64-36.87 19.44-37.8 8.98 1.11 19.18 9.86 23.13 17.84Z"/>
    <path fill="#000" d="M1000.43 731.11c.32 3.61 1.2 9.9-3.33 11.07-2.12 3.74-4.41 8.56-8.72 10.01-1.1 1.04-2.33 1.01-3.67.65-7.13-3.2-12.56-10.03-15.19-17.31-5.96-7.43-9.63-17.54-7.05-27-.24-2.61-.24-5.64 1.31-7.89 2.3-2.96 5.68-4.93 8.75-7 6.69-5.27 10.64-2.8 13.06 4.75 6.73-1.95 9.66 6.87 10 12.1 2.52 6.53 5.39 13.56 4.84 20.62Zm222.46-3.98c4.5 7.46 3.25 18.05-5.14 22.05-6.05 3.14-11.56 9.84-15.38-.05-10.18 5.45-15.36-3.71-15.53-12.9-5.94-5.02-5.8-14.2-3.77-21.09-4.35-6.85-3.63-16.59 3.47-21.28.94-7.43 9.42-9.29 15.43-11.22 7.78-3.16 11.2.61 12.8 8.08 4.89 2.01 6.23 8.41 6.32 13.21 7.55 4.39 9.02 17.82 1.8 23.2Zm-158.97-8.53c2.12 21.91 1.14 47.2-13.12 65.19-6.49 8.88-18.41 12.65-24.08 22.03 4.89 5.8 9.85 11.63 15.56 16.65 4.62 2.86 6.39 8.64 6.19 13.84.15 3.03-2.14 8.07-5.74 5.55-6.49-4.82-11.69-11.1-17.01-17.12-7.48-7.48-10.63-18.49-9.33-28.89 1.35-10.46 11.2-15.93 18.77-21.81 17.68-11.97 19.4-33.8 19.01-53.33-1.15-11.03 6.67-12.87 9.75-2.11Zm98.81 215.92c2.39 8.63 3.9 20.66-4.46 26.53-8.46 5.88-18.87 7.72-28.95 7.36-16.72-.11-29.47-12.84-37.97-26.06-7.55-11.82-13.45-26.91-8.48-40.82 3.82-10.13 15.08-16.76 25.77-14.57 15.3-2.08 27.87 8.63 37.18 19.46 7.42 8.09 13.97 17.39 16.91 28.1Zm108.48-371.72c5.1 4.04.5 13.52-3.39 17.1-2.35 2.38-4.34 7.41-8.54 6.34-23.16-4.79-47.29-2.55-70.78-1.9-18.34 1.29-36.77 2.52-55.11.57-15.57.67-15.5-11.1-7.48-21.03 12.95-10.89 32.93-11.09 49.03-12.57 32.48-1.92 65.29 1.23 96.27 11.49Zm169.74 88.48c1.26 3.95.62 15.89-5.58 14.33-1.13.29-2.17.71-3.22 1.2-3.59 2-6.92 4.42-10.14 6.99 10.19 3.56 18.86 8.92 18.52 20.98.76 12.69-9.44 21.8-19.7 27.38-5.38 3.12-10.93 6-16.66 8.44-1.47.64-2.99-.67-3.77-1.8-2.96-5.13-3.38-14.43 2.14-17.94 8.71-3.86 17.25-8.33 24.69-14.33-5.54-2.86-11.84-4.33-16.91-8.03-8.12-7.17-6.66-21.96 1.92-28.21 6.26-4.47 24.84-24.02 28.71-9.01Zm-127.2 141.65c.04-.02.07-.04.11-.06-1.68-2.41-3.48-4.74-5.32-7.02-.56-.7-.97-1.57-1.27-2.5-4.18 5.2-2.76 10.39 4.38 10.26.73-.15 1.42-.38 2.1-.68Zm9.91-9.82c3.41 7.36 3.59 16.54-.89 23.47-5.93 9.08-17.98 9.4-23.72-.13-10.86-13.71 1.47-53.13 8.74-35.38 1.13-3.21 4.62-4.59 6.66-1.35 3.32 4.27 6.74 8.56 9.21 13.39Zm-702.43-410.4c1.64.49 3.29.97 4.95 1.44-14.23-13.13-31.17-24.99-50.8-27.52 10.62 14.92 29.03 20.99 45.85 26.08Zm31.5 6.21c5.73 5.59 9.36 13.89 5.58 21.61-1.52 3.73-5.56 3.79-7.07 0-.9-1.23-1.45-1.83-2.32-2.89-.88 1.32-2.11 2.15-3.8 1.74-9.94-2.41-19.78-5.19-29.56-8.15-24.7-6.73-59.07-25.48-51.04-55.95 5.88-21.62 45.54 3.59 55.6 11.88 11.8 9.55 22.64 20.33 32.61 31.76Zm-33.59 107.67c-17.42-.42-36.15-.26-51.93 7.97 8.43 2.25 17.41 1.33 25.95.16 9-1.49 17.63-4.55 25.98-8.13Zm25.4-11.12c6.01 3.33 5.93 16.29.15 19.81-22.54 10.75-46.13 22.79-71.88 20.35-22.33.34-27.08-28.52-9.8-39.42 18.57-10.74 41.33-10.19 62.13-9.34 6.96.95 18.56-.99 19.4 8.6Zm1044.07 1264.86c-16.98-5.47-20.35-28.36-9.6-41.16 4.01-5.95 17.57-11.48 18.98-.93 21.72 6.78 16.06 51.85-9.38 42.09Zm9.24-18.66c.77-.14 1.5-.33 2.23-.59.04-.02.09-.05.13-.07-3.83-4.22-10.14-4.15-14.67-6.86-.37.31-.73.64-1.08.99-.18.21-.35.43-.52.64 3.27 4.05 8.76 6.15 13.91 5.89Zm62.4-71.55c.31-.06.61-.14.9-.22-.8-.65-1.61-1.27-2.45-1.87-.09.06-.17.12-.25.18-.51.44-1 .89-1.48 1.36 1.03.43 2.17.64 3.28.55Zm10.73-12.98c7.93 11.64 2.43 35.02-14.47 32.7-17.3-4.24-13.74-29.7-2.54-38.89 1.05-2.61 3-5.38 5.74-3.8 7.38-3.54 11.97 2.97 11.27 9.99Zm59.72 108.11c-8.17-1.62-2.87-28.97-4-36.34.26-19.6.56-39.2-.84-58.77-4.56-46.14-15.29-100.27-40.98-139.32-2.81-4.54-1.11-21.6 6.46-16.26 13 18.15 20.65 39.63 27.14 60.85 14.92 47.69 20.12 97.82 18.28 147.62-1.22 8.03 3.12 41.86-6.06 42.22Zm52.91-742.45c6.72.18 5.86 11.58 4.01 16.01-1.4 5.29-14.23 6.34-19.23 9.14-36.86 12.36-67.21 38.94-90.93 69.12-3.05 4.01-5.96 8.1-8.77 12.29-2.39 2.71-3.17 8.06-7.23 8.57-19.72-10.64 29.59-58.99 39.28-68.27 23.14-22.52 51.84-38.22 82.87-46.86Zm-92.3 331.59c8.31-2.17 7.33 16.16 2.16 19.12-21.15 14.13-42.16 29.4-63.92 42.17-6.2-2.31-5.11-12.37-2.63-17.24 2.94-4.11 7.94-6.05 11.96-8.93 17.69-11.38 35.01-23.33 52.43-35.12Zm30.4-313.78c-48.84-22.72-97.85-44.96-145.79-69.51-16.23-7.68-34.46-11.4-49.14-22.11-14.21-9.93-21.52-28.27-41.4-17.84-4.16-.94-4.58-6.73-4.47-10.25-.52-12.24 15.18-14.46 24.35-11.74 9.79 4.1 15.58 13.97 24.15 19.91 10.69 8.41 23.9 12.18 36.37 17.07 30.19 11.78 57.66 29.31 87.43 42.06 23.88 10.58 47.57 21.58 71.17 32.79 5.9 3.1 4.83 20.28-2.67 19.62Z"/>
    <path fill="#000" d="M872.21 645.37c-3.21-8.76-6.07-17.63-8.44-26.63-1.36 2.37-2.72 4.75-4.08 7.12 4.12 6.54 8.31 13.03 12.52 19.51Zm42.69 99.01c-.06-.18-.12-.37-.18-.55-.15.04-.3.07-.45.08.21.16.42.32.63.47ZM1125.63 1035c-.43-.71-.65-1.45-.61-2.23-.02-.14-.03-.29-.04-.43a812.83 812.83 0 0 1-33.57-20.09c.25.72.44 1.54.57 2.43 1.13 7.25-2.52 14.16-3.95 21.16-4.47 16.21-10.64 31.8-13.34 48.41 15.02-2.5 33.85-34.92 50.94-49.25Zm151.21-779.9c-16.53-3.97-27.69-17.25-23.18-34.62-5.97-2.88-15.48-3.4-17.2-11.06-.1-.28-.18-.6-.25-.96-2-.24-3.64-1.48-4.69-4.18-4.21 3.81-7.06-3.54-7.15-6.99-3.01-5.43-6.62-10.47-10.43-15.37-26.99-32.59-82.17-30.07-120.92-28.48-63.88 4.98-124.47 32.25-175.59 70.09-20.84 16.33-62.74 50.05-62.6 77.91 42.02-35.5 35.81 56.11-1.41 23.34-35.86 38.32-70.88 93.72-81.69 145.43-11.71 77.95 22.98 156.54 74.81 213.5 19.32 21.13 41.07 40.09 63.93 57.36-1.53-2.82-1.72-6.48-2.85-9.43-2.94-9.1-7.69-17.45-12.38-25.75-21.1-33.29-44.62-65.34-62.51-100.56-29.91-68.51 2.42-157.29 43.89-214.69-5.58 1.36-11.21 4.41-17.06 3.35-6.59-3.45-5.87-13.59-3.27-19.49 9.8-14.2 25.09-23.84 38.04-35.01 18.54-14.85 38.61-27.77 56.84-42.99-11.2-41.47 37.32-66.19 70.4-75.64 15.42-4.38 31.25-7.21 47.21-8.61 15.5-3.54 21.08 7.74 17.05 21.32 43.36-12.12 88.29-18.5 133.34-17.29 15.58 1.93 8.07 27.21 4.31 36.78-4.95 13.53-10.57 26.81-15.14 40.46 21.89-14.27 42.32-32.72 68.5-38.42Zm33.89-131c-27.98 1.14-58.57 35.87-71.2 59.26 6.2-4.64 14.32-5.35 20.77-9.16 19.36-13.63 38.6-29.23 50.43-50.1Zm-10.66 1010.06c-1.95-4.48-3.97-8.97-6.22-13.6-2.11-4.8-4.84-9.89-6.17-15.13-9.53-13.22-15.55-31.32-23.63-44.34-7.48-14.14-15.57-27.96-22.89-42.19-1.75-2.35-2.1-8.2-1.05-12.3-18.37 14.37-37.09 25.65-55.09 32.05 7.98 5.99 18.08 8.93 25.18 15.98 8.94 10.93 9.23 25.82 13.08 38.85 2.67 9.27 13.63 10.99 21.57 13.74 15.06 4.02 29.8 9.28 42.68 18.25 2.74 2.07 7.63 5.19 12.54 8.69Zm96.13-827.07c-16.18 10.6-34.86 17.84-49.79 30.11-11.57 21.59-20.74 14.64-40.15 19.38-1.23 14.99-6.13 19.79-13.62 20.95 6.59 5.8 13.38 11.36 20.47 16.53.53-1.33 1.32-2.52 2.45-3.45 6.46-3.91 11.59-9.46 16.8-14.84 22.35-21.88 42.72-45.65 63.84-68.68Zm-10.96 499.2c.09-.02.18-.04.28-.07-.33.05-.67.04-1.07 0 .26.03.52.05.79.07Zm78.39-22.39c-.36-3.26-.88-6.52-1.55-9.77-.98-7.12-5.73-13.74-3.51-21.07.1-.34.21-.71.36-1.08-3.27 3.11-6.77 6.12-10.43 8.99 2.44 1.91 3.65 6.37 5.56 8.55 3.1 4.85 6.33 9.62 9.57 14.38Zm.25 23.54c-.17-.18-.33-.37-.5-.57-5.18-10.43-24.28-28.29-21.26-41.17-17.5 12.23-38.03 20.76-57.52 20.66 1.07.27 2.23 1.4 3.42 3.75 3.86 9.06-1.35 18.77-2.52 27.97-3.7 16.09-7.79 32.09-12.08 48.03-16.75 61.96-40.08 122.55-73.13 177.72-.54.66-1.17 1.62-1.88 2.78-.52 2.27-1.86 4.18-3.44 5.98a268.2 268.2 0 0 1-5.2 10.81c.36 3.78.38 9.36-3.54 11.3-.37.34-.74.61-1.1.82 2.46 4.34 5.26 9.31 7.39 14.09.84.14 1.66.7 2.34 1.83 1.82 2.79 1.88 6.36 3.47 9.31 6.09 13.03 11.97 26.16 17.49 39.45.95 1.92 1.89 3.97 2.63 6.09 1.55-19.71 46.41-49.07 52.3-63.29-6.65-28.05-23.8-53.92-1.16-79.2 31.77-45.57 66.6-90.15 82.45-144.29 5.62-16.8 10.39-34.35 11.84-52.07Zm18.66-133.04c.02.39.03.79.05 1.18-.48-19.22-8.38-40.02-25.69-49.7-20.81-8.72-40.95 2.53-52.85 19.55.53.9.9 1.9 1.02 2.76 3.46 10.68-6.12 17.67-12.7 24.41-6.91 6.3-19.16 22.08-29.05 13.9-11.5-11.64-12.73-29.38-16.92-44.45-7.07-31.15-16.45-61.72-24.37-92.66-7.77-26.5-13.55-54.96-30.26-77.54-8.71-11.18-21.68-17.36-34.88-21.64-42.85-11.95-63.43-37.61-79.78-77.57-6.47-14.96-11.45-30.47-16.35-46-.14-.41-.29-.82-.43-1.23-5.29 17.81-18.87 39.04-25.77 50.48-31.23 45.55-71.11 85.03-114.25 119.33-12.28 8.01-39.07 33.09-53.37 22.68-8.83-7.87-7.75-21.68-5.78-32.24-25.77 34.93-54.58 67.57-79 103.52a278.09 278.09 0 0 0-3.43 5.02c2.17-2.23 4.48-4.36 6.54-6.62 11.65-11.89 27.11-19.51 43.15-23.49 12.02-2.2 32.81-6.46 43.1 1.18 3.16 3.11 2.87 8.29 1.62 12.21-2.23 7.92-9.17 13.46-17.24 14.51-18.37 3.18-36.79 6.18-54.59 11.85-6.98 2.28-13.81 4.79-20.34 8.17-2.48.91-4.6 3.69-7.21 4.04.42 1.72.85 3.44 1.3 5.15 7.6 27.91 20.23 53.98 32.89 79.87 8.3 18.17 16.77 36.59 21.02 56.2 3.32 18.01 2.15 36.64 7.53 54.32 15.71 54.88 54.35 104.73 96.48 142.38 22.04 19.04 46.93 34.26 71.58 49.62 7.47 4.63 14.99 9.27 22.7 13.5.99.35 1.91.8 2.77 1.35.4-.23.83-.42 1.29-.57 15.18 6.92 28.16 9.22 44.7 4.79 64.1-20.07 112.87-78.7 151.59-131.09 15.41-21.56 27.5-45.25 35.71-70.46 5-14.65 8.9-29.65 12.93-44.59.57-2.12 1.62-4.38 3.23-5.92.66-.52 1.25-.87 1.8-1.08 1.01-1.83 2.55-2.87 4.66-2.36-.35-.23-.75-.23-1.15-.3 44.88-2.9 99.43-44.61 97.74-92.85 0 .13.01.26.01.39Zm80.98 349.89c4.08-70.61 10.52-142.5-.58-212.7-1.13-4.84-4.07-8.92-8.28-11.58-23.21-16.03-45.96-33.24-71.67-45.12-9.67-2.25-12.21-9.79-9.49-18.82.03-.22.07-.42.12-.61-.63.87-1.29 1.73-1.95 2.58-2.81 3.59-5.95 7.15-9.37 10.62.25-.02.51 0 .78.05h.01c6.1 3.48 6.11 12.78 8.07 18.93 6.12 28.21 3.1 57.66-4.7 85.23-13.65 53.48-41.71 100.87-74.46 144.75-4.54 6.52-9.12 12.99-13.66 19.51.66-.25 1.32-.48 1.98-.68.21-.09.42-.16.62-.21 2.41-4.63 6.61-8.72 10.27-12.35 6.88-7.03 17.87-6.55 26.49-3.38 20.43 4.45 57.63 63.8 72.64 82.5 14.04 19.54 26.93 40.62 46.05 55.72 1.85 1.28 5.89 4.02 6.7.56 1.7-5.56 2.98-11.26 4.39-16.9 8.34-32.14 13.75-64.96 16.04-98.1Zm231.02 624.5c.98-28.7-9.29-56.39-16.07-83.93-7.36-25.16-12.63-51.95-26.9-74.28-8.16-10.26-19.61-17.17-29.95-25.01-25.07-16.55-47.55-36.46-70.29-55.99 1.27 2.59 2.34 5.29 3.22 8.07 5.62 15.64 9.69 31.8 13.73 47.9 8.7 40.39 14.97 83.21 2.48 123.5-9.52 31.68-23.69 64.08-50.73 84.62-12.14 8.64-26.55 16.76-41.58 20.5 6.26 5.15 12.41 10.43 18.32 15.98 19.96 20.43 40.92 45.89 71.07 49.46 22.34-.66 60.23-18.32 78.82-31.16 23.64-20.16 43.91-48.24 47.88-79.66Zm172.96 149.44c14.04-23.73 22.54-37.1 13.12-64.78-8.31-29.12-14.45-58.91-24.37-87.55-12.61-34.54-38.65-61.32-63.09-87.88-26.13-28.97-50.07-59.9-76.01-88.98-9.5-9.74-23.5-12.64-36.29-8.26-8.99 2.5-18.14 5.14-26.7 8.96 3.6 3.98 6.75 8.36 9.23 13.32 14.19 29.14 20.92 61.18 29.64 92.22 6.94 27.41 15.1 55.84 10.25 84.28-7.54 37.47-31.07 73.06-63.23 93.88-21.79 10.93-49.82 25.96-74.36 26.07a66.2 66.2 0 0 1-8.32-1.66c1.82 2.27 3.37 4.14 4.32 4.85 20.9 22.96 45.75 45.47 76.75 52.72 15.5 3.01 31.41 2.21 46.95 4.91 33.76 6.39 69.28 16.33 102.26 1.26 12.68-4.65 25-11.01 38.56-12.71 18.8.99 31.41-16.84 41.29-30.65Zm54.98-269.93c-1.43 12.11.82 86.06-9.88 84.01 2.2 18.16.7 36.54-1.8 54.57-2.86 19.95-7.38 39.62-12.18 59.19-1.3 2.94-2.19 12.15-4.64 17.22.71 5.03 1.1 10.11 1.07 15.23-2.77 30.21-34.21 90.78-68.52 90.19-30.7 6.09-57.35 25.71-90.29 20.57-21.14-1.99-41.59-8.21-62.7-10.38-10.58-1.04-21.25-1.12-31.78-2.72-42.14-7.39-73.63-40.96-99.74-72.58-2.34-3.38-2.98-8.48-1.75-12.75-19.32-10.71-34.91-28.88-50.21-44.34-6.89-6.29-14.06-12.25-21.32-18.11-3.23-3.03-3.3-8.13-2.59-12.27-6.97.5-13.98-.14-20.86-2.29-12.34-4.19-17.37-17.21-19.01-29.14-5.19-28.15-5.59-57.27-7.42-85.7-1.08-13.41-2.45-26.82-5.54-39.93-2.04-6.23-5.19-19.41 3.2-21.9 6.42 1.41 9.01 30.48 10.33 37.28 3.95 32.52 2.89 65.46 8.18 97.83.93 15.75 8.84 24.25 25.04 24.06 26.59-.36 52.37-14.28 70.22-33.52 17.12-19.01 26.27-43.43 33.25-67.68 6.36-23.81 4.74-48.77.61-72.82-2.68-17.85-6.71-35.43-11.8-52.74-3.26-11.16-6.15-22.73-12.64-32.54-11.63-14.64-32.6-13.99-48.81-20.35-3.03-2.08-4.04-5.97-3.77-9.86-.66.07-1.34.16-2.02.24-6.93-2.16-5.64-15.89-.72-19.57 9.39-1.04 19.25-1.95 28.75-.95 21.35 3.28 36.88 19.88 52.77 33.07 6.46 5.59 12.91 11.18 19.46 16.67-1.77-11.95.89-24.53 4.35-35.95.08-.29.17-.57.26-.86-.12-.09-.25-.17-.38-.27-23.35-24.91-30.29-59.7-38.2-91.81-9.77-42.24-16.43-85.62-14.52-129.07 2.36-64.21 28.18-27.12 11.72-16.2-7.16 62.08 7.44 125.12 25.41 184.29 3.71 9.85 8.68 19.16 14.75 27.76 1.56 2.53 3.98 4.61 5.83 6.96-.02-1.86-.29-3.72-.93-5.59-33.11-69.77-5.94-118.03 17.42-184.72 5.38-13.41 11.82 2.69 8.39 9.64-13.38 42.74-39.64 86.64-28.5 132.62 6.4 20.83 18.93 40 11.62 62.61-2.64 10.11-7.3 19.85-7.67 30.45 0 5.84 3.41 11.38 1.01 17.26-.1.44-.23.86-.38 1.25 6.68 5.34 13.5 10.5 20.56 15.34 7.95 6 16.69 11.52 24.74 17.73 2.69-3.65 7.21-5.43 11.24-7.21 13.25-5.33 26.96-10.54 41.3-11.75 30.88.02 45.22 35.36 64.52 54.43 27.15 33.5 58.57 63.95 84.22 98.25 19.78 26.6 28.75 58.75 36.46 90.49 2.71 12.77 6.89 25.4 10.36 38.13 2.07-7.32 4.38-14.46 4.85-19.14 3.93-16.92 7.16-34.03 8.95-51.32 1.03-13.25 1.56-25.8-1.2-38.7-2.5-8.33-8.27-13.6-3.25-22.96 4.53-6.55 8.19.06 10.5 6.87.63-11.06 2.87-24.17 2.26-29.47 3.23-53.61-.14-107.41-5.3-160.8-10.58-81.17-27.11-161.48-40.92-242.15-9.62-49.96-16.95-100.69-31.08-149.61-8.61-29.62-32.43-43.11-57.27-57.78-58.65-36.61-121.46-65.6-183.68-95.48-29.47-14.17-58.24-29.75-87.64-44.05-10.26-4.78-20.68-9.39-31.77-11.87-.88-.08-1.64-.29-2.31-.61 8.36 28.07 5.91 58.8 7.84 87.81-.79 74.91-1.9 150.95-18.08 224.38-2.31 10.2-4.82 20.34-7.45 30.46-1.7 9.27-7.25 20.56-17.99 12.71-30.32-23.39-47.72-59.13-71.43-88.56-6.27-8.51-12.64-16.94-19.5-24.98-7.69-7.81-13.29-18.92-23.67-23.36-22.02-10.82-28.96 7.31-34.29 11.7-.4.85-.91 1.53-1.52 1.97-4.6 2.27-9.52 3.93-13.96 6.56-.52.3-1.08.31-1.62.15.37 1.26.84 2.62 1.4 4.11 9.19 30.89 19.95 47.68-9.12 71.89-11.96 11.72-24.68 22.9-34.36 36.67-.85 1.36-2.09 2.82-3.8 2.39-1.68-1.28-2.91-2.66-3.75-4.14.11 2.41-.3 4.82-1.53 7.13-1.02 2.57-3.33 3.41-5.13 2.4-1.16 1.31-2.78 1.69-4.9.25-11.49-9.93-23.89-18.96-37.38-25.99-13.59-6.82-29.12-8.51-42.74-15.16-7.02-3.55-11.42-10.44-13.47-17.88-9.19-40.2-4.28-27.09-37.03-48.67-4.22-.79-5.84-7.08-5.14-12.48-6.9 1.58-13.64 2.34-20.18 2.18-2.7-.1-8.28-.98-13.7-2.54-.09 1.01-.24 1.9-.45 2.57-.79 4.94-5.96 6.55-9.27 9.55a99.026 99.026 0 0 0-10.02 10.05c-9.8 10.23-30.45 41.01-44.77 40.05-20.3-5.66-3.03-49.06.68-62.94 2.84-9.01 5.42-18.11 7.8-27.25.59-2.91 1.68-4.72 2.92-5.54-12.73-8.2-25.21-16.77-37.31-25.68-42.52-32.75-81.56-78.38-105.75-128.43-1.4 1.77-4.77 1.27-6.29 1.87-24.49 6.09-33.73 19.87-38.45 43.76-5.23 25.7-5.71 53.68-5.37 79.45 1.16 4.85-3.18 15.16-7.94 7.73-4.59-11.72-1.43-25.37-1.96-37.76.34-11.14.93-22.25 1.96-33.35 3.41-34.41 11.63-73.23 50.13-79.58a263.22 263.22 0 0 1-8.53-24.59c-4.6-13.88-5.28-28.37-6.67-42.76-.99-.48-2.07-1.28-3.23-2.46-95.55-67.54-166.8-170.14-155.47-291.47 8-60.82 45.25-119.73 85.19-165.15-13.2-64.48 103.03-133.69 154.23-154.07 44.88-18.84 94.22-26.55 142.71-22.52 34.44 2.19 68.2 12.13 85.69 44.44 10.94-25.46 29.89-47.59 52.91-62.95 9.72-5.44 21.51-14.26 33.05-9.85 22.98 19.48-9.4 53.32-24.89 67.64 18.93.79 51.75 3.13 44.06 30.3 80.32 20.19 142.73 86.92 169.48 163.84 3.12 12.43 15.94 30.79 9.37 42.66-2.08 3.36-5.64 1.56-6.77-1.45-4.77-1.32-10.88-5.07-16.26-8.37 5.91 44.08 16.69 87.6 17.09 132.33.62 21.49-3.32 42.76-6.14 63.98-1.17 3.38-3.05 24.02-6.64 35.95.67 4.05-.28 8.58-2.5 11.62-.63 1.25-1.48 2.96-2.47 4.48 8.3 28.8 3.16 61.44-14.06 85.94 7.71-5.11 50.79 25.98 56.58 29.29 11.89 9.49 27.83 15.76 35.94 29.06.13-1.48.41-2.9.76-4.11-2.16-22.68 123.73 53 139 57.18 54.03 25.7 108.16 51.3 159.53 82.11 39.81 24.23 67.3 35.48 79.41 84.75 23.52 101.29 38.92 204.31 57.55 306.57 13.09 69 19.03 139.21 19.06 209.41ZM840.5 1077.63c-6.52-14.19 9.09-29.01 23.09-28.04 26.26-.64 52.36 3.18 78.58 3.72 6.2 1.62 5.74 12.38 3.53 17.07-.68 1.35-1.84 2.93-3.54 2.93-9.4 0-18.8-.91-28.18-1.48-14.4-1.01-28.8-2.29-43.26-2.23-8.61-.62-18.6-.04-23.35 8.38-1.68 3.6-5.41 3.19-6.87-.35Z"/>
    <path fill="#000" d="M956.74 1105.85c-3.18-2.5-3.15-7.14-4.56-10.66-2.61-8.18-5.59-16.65-11.42-23.12-8.83-3.07-4.29-29.18 5.81-16.45 7.81 9.59 17.53 31.57 16.5 43.9-.36 2.95-2.56 8.41-6.33 6.33Zm-176.69 20.87c-19.11-11.18-15.88-42.8-16.73-62.07-.22-22.02.69-45.31 13.19-64.29 14.57-21.36 32.56-42.64 55.57-55.07 26.74-11.15 33.34 7.69 42.61 28.19 6.48 13.61 15.12 25.99 22.85 38.88 5.49 9.14 10.39 18.57 15.1 28.12 3.8 6.89 8.35 14.84 4.39 22.69-1.67 3.8-5.43 3.81-7.07 0-9.79-20.36-21.13-39.85-33.3-58.87-7.64-11.78-12.15-25.24-19.3-37.25-17.53-15.69-39.92 9.42-52.38 21.2-12.13 13.31-25.32 27.43-29.75 45.37-2.67 15.51-2 31.39-1.71 47.07.45 6.86.56 13.95 3.19 20.4 10.39 20.2 38.85-5.93 43.76-19.32 7.5-15.92-.36-34.96 9.83-50.09 2.33-2.88 5.36-11.77 9.58-10.93 3.98 1.96 4.3 7.57 4.12 11.49-.11 5.46-4.36 9.35-6.81 13.9-4.78 6.82-2.25 15.3-3.09 23.04-.41 6.14-1.48 12.2-3.32 18.08-4.83 15.9-15.68 30.37-30.79 37.73-6.11 3.07-13.5 4.97-19.94 1.73Z"/>
    <path fill="#000" d="M720.4 1025.52c-3.8-23.14 9.08-45.55 20.29-64.93 7.31-9.6 18.64-30 32.93-24.82 11.48 4.84 24.34 9.39 31.25 20.47 4.39 6.41 8.88 14.52 5.75 22.36-.87 3.36-4.71 5.96-6.99 2.16-1.81-3.76-3.75-7.44-6.38-10.7-4.83-6.3-12.67-8.72-19.51-12.18-11.95-7.07-16.54.3-23.96 8.95-10.3 12.95-17.8 28.01-22.95 43.69-2.52 5.31.33 10.98-1.23 16.45-2.15 8.43-8.17 6.02-9.2-1.45Zm427.63 330.39c-11.84-.96-19.67-11.34-20.58-22.68-2.64-30.55 16.77-58.18 30.5-83.87 17.05-28.09 43.62-68.38 75.97-78.7 16.86-5.16 33.81-5.48 50.97-8.36 10.26-1.71 20.5-3.59 30.66-5.78 34.78-9.18 60.13-8.29 79.15 26.19 5.04 9.18 12.36 19.03 12.12 29.85-.18 3.13-1.63 8.96-5.75 8.25-3.01-1.22-3.39-5.02-4.66-7.62a118.34 118.34 0 0 0-5.45-10.71c-10.72-19.33-21.72-31.29-45.3-31.13-13.48.67-26.44 4.92-39.69 7.18-18.62 3.94-37.58 5.87-56.38 8.56-25.03 3-43.42 19.5-58.33 38.67-20.33 24.64-35.73 52.54-48.91 81.37-2.41 7.04-7.75 16.93-3.97 24.03 6.12 6.53 16.35 5.62 23.77 1.93 9.92-5.16 16.16-15.04 20.42-25.06 4.17-9.4 5.88-20.31 13.13-28.02 6.89-7.38 15.95-12.22 24.35-17.64 8.75-5.46 17.38-11.11 26.09-16.63 8.14-5.7 16.9-10.35 26.71-12.37 3.75-1.02 7.51-2.02 11.27-3.02 1.61-.43 2.88.52 3.76 1.8 2.96 4.9 3.35 14.76-2.14 17.94-12.6 3.15-25.31 6.12-35.79 14.21-15.24 10.21-31.44 19.01-46.1 30.05-8.87 6.82-9.61 18.85-14.41 28.28-7.04 16.74-21.41 34.83-41.41 33.28Z"/>
    <path fill="#000" d="M1204.85 1438.61c-17.03-4.64-19.83-23.58-15.83-38.48 3.37-14.86 6.52-29.77 9.95-44.62 5.3-21.18 18.54-39.09 31.74-56.04 9.53-12.64 18.62-25.64 28.67-37.88 9.14-12.75 23.17-19.72 37.55-24.93 24.27-9.98 49.2-18.44 74.78-24.36 27.07-6.29 57.01-11.33 71.43 18.71 4.82 9.18 9.24 18.64 15.79 26.76 2.61 3.43 6.69 6.08 6.98 10.75.6 4.22.36 9.74-3.17 12.65-4.02 2.15-7.84-5.62-10.33-8.03-7.14-9.04-11.82-19.61-17.28-29.66-2.99-5.22-7.16-9.76-12.63-12.4-29.3-13.81-108.98 18.9-139.17 31.78-8.53 3.95-14.91 10.9-20.7 18.11-9.54 11.93-18.28 24.47-27.54 36.62-10.29 13.35-20.78 27.14-26.19 43.3-4.24 17.1-8.06 34.37-11.5 51.65 6 9.38 18.89 7.64 27.45 3.02 8.67-4.44 14.91-12.06 19.68-20.39 9.63-14.2 8.15-32.61 17.44-46.85 18.37-24.1 54.76-36.99 82.13-48.42 13.04-5.09 26.14-10.01 39.27-14.85 1.54-.57 2.95.62 3.76 1.8 3.01 5.08 3.35 14.5-2.14 17.94-37.44 14.55-77.34 26.32-109.42 51.3-10.11 7.6-11.75 18.05-14.26 29.58-1.54 5.75-3.54 11.25-6.05 16.65-8.65 19.29-27.01 40.96-50.41 36.29Z"/>
    <path fill="#000" d="M1268.2 1486.77c-27.4-22 0-58.98 11.99-82.43 12.32-19.4 23-39.81 35.93-58.76 9.04-13.31 22-23.07 36.29-30.16 13.78-7.67 27.7-15.06 41.67-22.36 24.77-12.2 63.68-34.57 90.27-18.51 11.31 6.01 27.08 34.42 15.03 44.34-5.23.59-5.27-6.66-6.16-10.06-1.21-3.56-3.38-6.7-5.6-9.7-27.79-32.16-103.57 22.02-133.77 36.22-23.65 10.48-37.51 33.01-49.23 54.64-8.82 14.92-18.48 29.34-26.32 44.83-3.87 7.57-8.02 15.06-10.72 23.16-2.52 4.7 1.03 8.53 5.19 10.64 16.8 5.76 35.22-2.96 48.24-13.53 20.58-18.2 31.07-44.38 46.91-66.32 2.3-3.78 6.13-1.21 6.99 2.16 1.5 4.47 1.44 9.89-1.09 13.98-5.8 8.47-11.26 17.18-16.58 25.96-13.26 22.93-29.43 46.97-55.52 56.16-10.44 3.67-23.62 5.74-33.52-.26Z"/>
    <path fill="#000" d="M1333.89 1474.99c-6.25-12.89 2.71-26.79 6.95-38.98 8.94-19.4 17.4-39.83 31.73-55.97 7.38-7.83 16.77-13.17 25.9-18.69 17.35-10.44 34.91-20.53 52.17-31.12 6.54-2.66 7.32 10.15 6.02 14.09-1.74 6.97-10.54 8.58-15.67 12.66-13.65 8.16-27.4 16.15-41.02 24.36-9.18 5.52-18.64 11.01-25.45 19.47-13.46 18.37-22.85 39.6-31.01 60.77 20.63 4.23 39.73-10.68 52.97-24.98 9.67-11.96 21.6-21.76 35.51-28.43 18.47-9.15 39-12.57 58.98-16.88 4.94-2.09 7.13 4.14 7.27 7.95.21 3.84-.16 9.66-4.13 11.49-27.92 5.67-57.44 10.92-79.91 29.78-14.61 14.43-27.53 32.06-47.83 38.79-10.25 3.48-25.69 6.58-32.48-4.31Zm236.93-87.17c-10.14-10.89-22.98-18.66-33.37-29.25-6.71-6.97-12.34-14.96-19.76-21.25-11.51-10.91-23.29-6.89-25.38-12.35-2.22-5.03-2.75-15.06 3.54-17.07 3.99.53 7.98 1.31 11.8 2.6 18.25 6.64 27.3 25.38 41.71 37.15 9.05 7.05 18.06 14.14 26.06 22.4 3.08 3.58 3.14 9.08 2.14 13.48-.5 3.02-3.62 7.46-6.74 4.29Z"/>
    <path fill="#000" d="M1587.06 1397.88c-4.48-3.24-8.84-6.72-13.76-9.28-1.95-1-4.39-1.26-5.65-3.26-2.96-5.08-3.39-14.53 2.14-17.94 4.89-.19 22.99 11.13 23.28 16.39 1.28 4.2.7 16.5-6.01 14.09Zm-618.4 366.54c-10.78-2.1-9.46-31.68-12.82-41.14-2.08-10.99-5.86-26.73 6.4-33.02 16.04-9.23 33.21-16.31 49.7-24.7 50.53-26.69 102.07-51.44 153.37-76.48 72.03-36.82 139.41-81.99 209.7-121.93 37.53-22.8 74.74-46.33 114.09-65.92-.74-6.89 2.33-14.08 10.57-11.69 12.76 1.38 14.71 53.43 12.56 63.77-3.91 15.83-34.67 26.53-48.22 34.67-95.04 45.1-185.35 98.8-275.01 153.57-28.59 18.26-59.56 32.31-88.61 49.77-29.08 17.15-58.11 34.41-87.53 50.96-9.37 5.24-18.68 10.59-28.17 15.62-5.18 2.42-10.23 6.11-16.03 6.52Zm-1.89-39.68c.61 3.41 1.19 6.82 1.7 10.25.47 3.1.85 6.2 1.41 9.28 62.47-30.27 119.77-70.5 181.79-101.79 98.08-57.17 193.78-118.99 296.78-167.27-.04.02-.09.04-.13.07-.05.02-.09.05-.14.07 18.53-9.89 38.81-17.81 55-31.38-.73-5.14-.52-35.66-6.19-34.76.34 5.28-1.5 10.58-6.99 12.12-19.24 9.53-37.86 20.32-56.35 31.21-29.43 17.36-58.29 35.66-87.93 52.66-59.52 34.46-117.16 72.72-178.66 103.58a9784.51 9784.51 0 0 0-202.96 101.31c.73 4.9 1.79 9.77 2.67 14.65Zm528.34-228.66c-6.32-2.06-5.73-12.04-3.54-17.07.72-1.46 2.08-3.18 3.92-2.9 9.87-.22 19.23-4.18 28.43-7.45 7.5-2.87 15-5.75 22.35-8.97 6.58-.43 6.52 11.44 4.84 15.77-1.09 5.89-24.81 11.93-31.06 14.98-8.05 2.69-16.33 5.77-24.94 5.64Z"/>
    <path fill="#000" d="M1629.8 1658.13c-10.76-11.86-20.71-24.47-31.73-36.13-14.06-14.95-29.19-28.93-42.05-44.97-19.84-24.28-34.56-53.76-61.37-71.45-8.27-.61-7.71-30.99 7.87-15.73 24.4 18.28 39.13 45.3 57.63 68.85 12.82 15.99 27.78 30.03 41.88 44.86 11.27 11.84 21.39 24.71 32.36 36.8 4.52 3.69 3.57 22.92-4.59 17.77Zm-672.56 91.76c-45.41-19.5-92.89-33.6-138.78-51.85-145.79-61.65-289.89-127.27-438.18-182.85-66.72-25.79-133.07-52.48-198.82-80.63-23.99-9.9-48.7-17.94-72.61-28.07-4.08-1.9-8.62-3.27-11.9-6.45-2.55-6.12 5.63-12.17 10.86-13.67-.6.18-1.2.32-1.75.62 2.29-.89 5.31-1.46 6.46.42 24.69 12.94 52.11 20.05 77.72 31.03 41.82 17.27 83.18 35.64 125.44 51.85 159.71 60.77 317.19 126.81 473.6 195.52 47.11 21.47 96.35 37.27 144.79 55.34 6.97 3.6 39.03 12.34 37.76 17.53-1.22 6.11-8.34 11.98-14.59 11.21Zm9.44-59.02c-102.9-41.49-204.17-87.31-308.72-124.76-168.83-68.3-340.3-129.8-509.01-198.39-7.29-2.85-14.57-5.75-21.94-8.41-7.34-2.64-14.86-4.91-21.98-8.11-2.45-.47-2.69-3.68-1.6-5.54 1.88-4.35 6.37-7.82 10.87-9.05 5.67-.48 10.67 3.78 16.18 4.92 12.4 4.19 24.54 9.09 36.73 13.83 118.23 48.26 237.82 93.14 357.38 137.99 100.24 42 202.99 77.53 303.02 119.97 48.34 21.63 97.98 40.11 146.65 60.88 1.65.73 3.31 1.43 5 2.09 7.74 4.3-7.76 16.79-12.58 14.58Z"/>
    <path fill="#000" d="M962.76 1682.52c-3.84-5.41-3.24-15.22 2.49-19.13 6.73-3.41 13.82-6.11 20.69-9.22 17.26-7.54 34.51-15.11 51.4-23.47 28.4-13.68 55.67-29.5 83.64-44 18.2-9.43 36.72-18.28 54.41-28.67 55.41-32.8 111.66-64.35 168.79-94.05 6.93-2.09 6.73 10.29 5.39 14.34-.5 1.62-1.43 3.95-3.08 4.77-36.77 18.16-71.89 39.46-108.01 58.84-36.9 20.21-72.19 43.23-110.24 61.32-50.39 27.08-100.72 54.33-153.73 76.03-2.27 1.04-4.59 1.97-6.81 3.13-1.25 1.56-3.59 1.8-4.94.11ZM97.88 1386.09c.27-7.77-6.31-52.13 6.62-48.52 4.48 4.28 4.16 12 2.16 17.45.03 8.66.39 17.34.98 25.19 1.82 8.91-6.95 20.73-9.76 5.88Z"/>
    <path fill="#000" d="M99.77 1349.16c-5.24-3.53-4.5-12.32-2.02-17.42 3.96-5.59 12.46-5.7 18.28-8.73 27.21-10.79 52.83-22.82 79.63-33.88 26.2-11.84 52.85-22.56 80.02-31.98 1.54-.55 2.95.79 3.68 1.96 2.78 5.24 2.7 14.59-2.94 17.83-59.12 19.87-114.45 49.2-172.91 70.7-.89 1.16-2.29 2.07-3.74 1.52Zm60.73 15.04c-4.48-4.55-3.9-13.69.1-18.39 8.45-5.13 18.32-7.76 27.31-11.92 29.19-12.21 58.55-23.98 87.83-35.96 8.07-3.32 16.21-6.48 24.27-9.82 1.5-.62 2.98.85 3.68 1.96 2.78 5.26 2.7 14.53-2.94 17.82-37.03 15.04-74.13 29.9-110.99 45.32-7.64 3.15-15.34 6.17-22.92 9.45-2.19.68-4.08 3.16-6.34 1.54Zm-33.68 623.13c-12.65-3.74-10.03-12.01-10.82-22.55-.98-18.19-2.11-36.38-2.6-54.6-.37-60.57-5.38-120.99-4.02-181.59-.38-89.36-2.93-179.06.34-268.35.3-18.52-.2-37.08 1.31-55.56 2.86-6.18 12.98-.54 16.25 2.88 4.23 3.48.31 17.94 1.05 23.78.03 28.06-.82 56.1-1.72 84.14-.5 96.53 1.05 193.08 1.45 289.61 3.34 54.97 2.85 110.06 6.26 165.04.33 4.78.38 9.59.72 14.36.46 4.28-5.74 3.57-8.22 2.84Zm849.05 1.23c-11.92-2.82-9.61-10.85-10.06-20.56.15-15.03.44-30.07.69-45.11 1.55-54.23-1.59-109.27-2.5-163.02 3.72-3.27 9.62-1.12 13.53.81 3.64 1.72 5.76 5.31 5.44 9.31.3 7.63.58 15.27.78 22.9 1 31.97 2.22 63.94 2.22 95.93.09 26.9-.66 53.79-1.02 80.68-.1 5.48.18 10.95.46 16.42-.66 4.12-6.57 3.43-9.54 2.64Zm-600.6-332.03c-3.06-3.61-3.15-9.06-2.14-13.48 1.6-6.38 9.51-8.98 14.22-12.91 8.13-5.99 13.85-7.62 15.85 4.35 4.53-.17 9.28.3 13.64-1.09.84-12.92.67-23.75-.89-36.29-.93-9.58-1.51-9.04-10.68-10.44-8.38-1.21-16.82-2.41-25.3-2.56-7.81.76-7.67-20.68.28-19.98 11.23.41 22.47 1.81 33.46 4.12 7.46 1.98 9.76 10.37 10.9 17.1 2.77 16.33 3.21 32.96 2.15 49.46-.07 7.59-1.77 17.94-10.93 19.02-3.76.62-7.59.54-11.39.64-5.08.7-8.21-3.83-9.42-8.25-5.49 3.32-10.66 7.17-15.87 10.91-1.25.96-2.86.44-3.88-.6Z"/>
    <path fill="#000" d="M329.41 1637.4c-1.49-12.12 3.4-12.78 12.44-17.89 13.3-7.68 26.56-15.48 40.12-22.69 5.81-3.03 11.67-6.03 17.82-8.32 6.23-3.12 8.76 2.06 9.14 7.53.15 3.81-.12 8.67-3.37 11.21-15.16 3.93-28.58 13.46-42.4 20.81-9.14 5.23-18.2 10.59-27.42 15.68-3.67 2.27-5.91-3.51-6.33-6.33Z"/>
    <path fill="#000" d="M629.77 1767.22c-9.44-.72-18.52-3.66-27.32-6.99-3.78-1.06-6.89-3.49-8.99-6.8-2.86-5.23-1.12-14.79 4.17-17.91 1.52-.61 2.8.07 3.7 1.33 1.36 2.5 4.86 3.88 7.05 4.54 10.68 3.98 21.97 7.02 33.47 6.28 1.16-13.53 2.17-27.07 3.28-40.6.53-9.37.72-19.21-2.82-28.06-2.87-2.62-7.82-2.16-11.47-3.35-9.04-1.88-18.11-3.63-27.03-6.02 3.63 15.38-7.26 20.66-18.79 26.9-13.34 7.54-26.28 15.94-40.28 22.24-4.96 2.18-10.54 4.71-15.9 2.38-14.03-3.84-27.42-9.46-40.54-15.68-24.63-10.8-48.87-22.83-74.56-30.97-14.94-4.37-30.04-8.32-44.36-14.51-10.94-4.87-22.11-9.22-33.72-12.22-7.12-1.77-3.21-20.23 3.44-19.73 15.48 3.77 29.88 10.61 44.61 16.48 9.58 3.43 19.36 6.12 29.13 8.94 19.46 5.49 37.93 13.8 56.36 22.01 22.21 9.32 43.52 21.4 67.1 26.96 8.74-1.54 16.42-6.78 24.25-10.74 9.79-5.55 19.43-11.35 29.24-16.85-4.27-8.7-1.39-23.67 9.31-25.84 7.14-.58 14.03 2.92 21.04 3.99 8.12 1.77 16.29 3.28 24.38 5.21 8.51 2.48 8.89 13.6 10.5 20.88 2.6 21.05-1.39 42.2-2.52 63.23-1.51 17.91-1.14 27.46-22.73 24.9Zm-289.22-138.34c0-.01.01-.02.01-.04-.22-.17-.45-.34-.67-.51-.18-.07-.36-.13-.54-.2.47.19.87.45 1.2.75Z"/>
    <path fill="#000" d="M529.12 1779.79c-2.51-4.07-1.61-9.39-.02-13.65 2.46-5.9 9.81-6.81 14.72-10.02 13.97-7.24 27.66-15 41.54-22.41 13.7-7.43 27.38-14.86 41.52-21.42 4.06-1.88 5.23 4.69 5.26 7.24-.08 4.26-1.15 9.67-5.1 12-25.41 11.94-49.72 26.03-74.43 39.31-4.95 2.66-9.96 5.23-14.99 7.75-2.73.93-6.14 4.59-8.5 1.2Zm-231.7-106.77c.41-9.56 1.43-19.09 2.26-28.62 1-7.02.96-15.02 5.27-20.98 2.84-3.37 7.1-4.9 10.87-6.98 9.09-4.64 18.15-9.31 27.14-14.13 13.49-7.11 26.55-15.08 40.39-21.49 9.91-4.24 7.7 14.97 2.58 18.31-10.06 4.03-19.38 9.73-28.96 14.86-15.31 8.58-30.96 16.5-46.53 24.59-1.21 9.93-1.95 19.93-2.68 29.9-.08 2.53-.47 5.04-1.5 7.39-3.46 8.07-9.01 4.64-8.84-2.85Zm86.04-73.15h.56c-.66 0-1.33-.25-2.01-.73.23.16.46.33.69.49h-.01.01l.01.01c.25.07.5.14.75.23Z"/>
    <path fill="#000" d="M522.21 1776.29c-37.57-15.51-74.64-32.25-112.44-47.22-36.52-14.1-73.24-27.73-107.95-45.99-2.1-1-4.11-2.25-6.3-3.06-.74-.29-1.01-.75-1.45-1.36-1.8-6.91 12.78-13.58 18-9.58 55.08 28.9 114.6 47.55 171.39 72.66 17.97 7.65 35.75 15.77 53.91 22.98 6.93 5.29-10.29 14.67-15.16 11.57Zm-123.95-138.82c-3.32-3.48-4.45-8.79-3.91-13.46 1.08-7.89 2.39-15.85 1.91-23.84-2.31-.85-5.04-1.27-7.46-.76-4.27.15-6.14-5.33-6.94-8.77-.91-4.15-.8-11.72 5.17-11.09 6.26-.37 12.57 2.33 15.4 8.17 4.89 8.69 4.96 19.05 4.29 28.74-.36 5.07-1.02 10.12-1.73 15.16-.11 3.78-2.22 9.97-6.73 5.85Zm229.63 92.13c-6.02-6.16-3.58-15.03-2.54-22.57.35-5.25.99-10.67-.37-15.83-7.94-2.26-16.67-2.83-24.8-1.26-6.11 3.47-9.47-9.92-8.44-14.17.33-6.49 8.04-6.19 12.87-6.31 8.42.32 19.42-.54 25 6.97 6.03 9.09 7.01 20.64 6.72 31.29-.24 6.18-1.01 12.25-2.03 18.33-.28 3.5-3.21 6.79-6.41 3.55Zm18.12 166.91c-57.85-30.22-118.97-53.46-177.07-83.24-28.52-13.28-58.28-26.31-86.92-38.77-24.37-10.74-49.83-19.1-73.7-30.96-11.26-4.29 2.01-16.43 9.2-16.18 3.17.62 5.74 3.57 8.91 4.57 44.57 18.96 89.65 36.72 133.61 57.12 39.44 17.6 77.59 37.97 117.32 54.97 28.46 11.82 55.92 24.51 83.03 38.96 5.56 5.43-9.1 16.59-14.38 13.53Z"/>
    <path fill="#000" d="M649.71 2028.16c-3.7-1.56-8.52-4.4-8.59-8.9 1.38-21.04 1.7-42.15 2.79-63.21 1.04-21.35 1.12-42.74 1.77-64.09.52-2.4-.75-5.25.84-7.27 5.6-3.29 13.75 1.21 16.99 6.16 1.75 5.45-.08 11.54.28 17.21-.31 26.57-1.35 53.12-2.55 79.66-.58 12.98-.77 25.98-1.75 38.93-1.14 4.01-6.93 2.63-9.78 1.51Zm-343.06-81.76c-4.08-1.29-9.28-4.05-10.21-8.59-.24-31.63-1.1-63.26-.61-94.89 1.05-32.23 2.23-64.45 1.89-96.69-.05-2.44.07-4.85-.08-7.3-1.3-3.1 2.41-4.82 4.99-4.35 5.79.62 13.47 4.43 13.42 11.09.12 8.48.06 16.95.09 25.43-.13 23.74-.8 47.49-1.74 71.22-.8 28.37-.05 55.53.22 83.72l.21 17.44c.16 4.18-5.44 3.88-8.18 2.92Z"/>
    <path fill="#000" d="M363.81 1981.86c-21.12-12.24-42.67-23.65-64.61-34.37-8.45-4.46 8.02-17.47 13.49-13.89 22.26 10.99 44.31 22.51 65.79 35.02 5.33 5.5-9.35 16.46-14.67 13.24Zm220.47-27.33c-38.29-16.79-75.3-36.27-113.12-54.05-37.87-17.87-76.98-32.9-115.14-50.08-4.12-1.25-1.14-6.81.48-8.91 2.69-3.28 6.92-6.91 11.45-6.25 58.52 25.26 117.57 49.43 174.26 78.73 18.32 9.01 36.84 17.68 55.49 25.99 1.49.66 1.52 2.66 1.23 3.99-1.62 5.58-8.51 12.33-14.65 10.58Zm901.91 28.49c-7.49-1.51-12.23-6.63-11.11-14.46-.04-8.17.14-16.35.32-24.52.71-32.71 2.71-65.35 4.02-98.04 2.12-109.18 6.85-218.27 9.39-327.44.4-16.41.54-32.83.85-49.25.02-1.35 1.3-2.21 2.43-2.59 6-1.44 15.25 2.31 16.37 8.79-.29 20.85-.6 41.71-1.17 62.55-4.06 139.25-8.04 278.49-13.2 417.7-.3 8.34-.32 16.92.11 25.08-1.19 3.08-5.36 2.75-8.01 2.18Zm504.46-71.17c-7.7-25.14-12.99-51.07-21.66-75.88-11.44-10.56-.68-35.27 8.72-8.2 8.39 25.26 14.11 51.36 21.77 76.86 3.09 8.44-3.88 21.58-8.83 7.22ZM1673.96 770.67c-5.12-3.41-5.38-17.57-6.71-23.61-1.94-23.9.47-47.6-.7-71.51.2-7.97-3.4-96.52 11.98-81.19 3.89 6.82-.48 14.21-.8 21.3-3.08 37.43.2 74.99-1.26 112.48-.2 8.26.79 16.52 2.63 24.57 1.95 5.03 2.42 18.38-5.14 17.96Z"/>
    <path fill="#000" d="M1676.5 775.72c-5.82-12.31 3.99-19.39 12-26.96 11.69-11.23 24.13-21.65 37.11-31.36 74.43-52.4 155.65-99.14 240.7-131.81 7.58-.38 6.39 18.02.4 19.8-52.39 19.7-102.25 45.14-150.09 74.13-38.72 22.56-77.52 45.74-111.48 75.19-7.88 6.97-15.61 14.15-22.97 21.66-1.56 2.1-4.55 1.74-5.67-.65Zm-3.74-164.19c-5.12-9.96 2.63-19.8 8.67-27.3 10.38-13.12 21.07-26.01 32.51-38.22 46.05-46.13 101.8-82.29 159.68-111.82 7.25-3.02 46.59-25.08 49.42-17.66 2.71 5.23 2.44 14.69-3.24 17.77-6.49 1.98-12.84 4.4-19.1 7-68.37 31.75-134.41 72.37-187.06 126.8-11.2 12.76-22.38 25.63-32.38 39.37-1.69 3.24-5.02 9.51-8.5 4.06Z"/>
    <path fill="#000" d="M1967.81 597.17c-4.71-2.24-7.93-26.59-10.33-32.93-8.5-30.25-17.05-60.48-25.16-90.84-3.94-15.11-8.41-30.16-15.12-44.3-2.85-4.56.32-22.9 7.42-14.82 9.16 19.07 14.46 39.69 19.73 60.12 7.54 28.33 16.05 56.39 23.48 84.74 1.69 10.07 6.78 19.89 6.22 30.15-.44 3.19-2.14 8.8-6.24 7.88Zm-881.72 577.97c-48.16-21.45-97.05-41.49-147.01-58.37-36.16-12.66-73.11-22.97-109.38-35.25-7.51-4.61 8.24-15.91 13.41-13.56 81.2 25.48 162.38 51.44 240.14 86.39 5.41 2.41 10.83 4.82 16.25 7.23 1.19.53 1.95 1.3 1.99 2.67-.62 6.2-9.41 12.15-15.4 10.89Z"/>
    <path fill="#000" d="M1030.54 1369.09c-.63-2.47-.31-5.45.52-7.84 4.99-14.32 9.82-27.12 14.37-40.53 15.37-42.8 30.4-85.79 40.26-130.26 2.7-9.42 3.5-19.87 8.53-28.39 2.04-3.1 6.4-4.45 7.45.44 1.2 5.07-1.44 9.94-2.48 14.81-2.56 10.17-4.87 20.4-7.41 30.57-9.58 40.09-23.66 78.85-37.44 117.63-4.46 13.01-9.48 26.5-13.85 38.96-.88 4.39-7.59 12.48-9.95 4.61Zm-784.19-160.71c-1.1-5.58 1.19-13.44 6.63-15.95 9.01-.27 18.08-.32 27.11-1.05 99.86-11.62 197.53-37.72 295.37-60.21 30.68-7.51 61.46-14.57 92.16-22.01 8.64-.45 3.04 17.89-2.5 19.08-105.6 25-210.87 51.69-317.55 71.82-29.97 5.6-60.18 11.07-90.75 11.56-3.68-.35-9.55 1.77-10.47-3.24Z"/>
    <path fill="#000" d="M317.2 1199.77c-6.02-20.1-11.5-40.38-15.88-60.9-2.02-14.08-12.18-41.72-6.45-53.81 1.2-2.8 5.07-7.44 8.02-4.05 2.05 3.57 1.12 8.36 2.23 12.34 6 31.57 13.35 62.91 22.69 93.67 2.46 5.24-6.04 23.53-10.61 12.75Z"/>
    <path fill="#000" d="M287.69 1097.61c-4.11-4.71-1.12-12.75 2.43-17.02 3.83-3.73 9.9-2.62 14.79-3.58 6.07-.7 12.09-1.61 18.12-2.56 42.92-7.36 85.56-16.29 128.23-24.94 76.79-16.05 154.2-28.93 230.97-45.04 7.14-.5 4 11.78 1.67 15.23-.9 1.46-2.35 3.45-4.16 3.85-20.66 4.64-41.5 8.37-62.29 12.37-42.61 8.24-85.32 16.02-127.88 24.48-67.09 12.36-134.43 30.03-201.88 37.21Zm611.96 548.51c-4.36-.51-9.63-2.37-11.57-6.64-3.67-9.51-6.91-19.17-10.55-28.7-15.87-40.69-28.98-82.39-43.45-123.59-45.1-128.75-98.5-256.67-175.29-369.93-8.09-9.69 9.83-8.8 14.33-4.27 2.58 2.01 4.13 5.24 6.3 7.71 88.72 133.45 146.41 284.62 196.73 435.99 7.04 20.72 14.62 41.25 22.48 61.67 2.92 7.79 5.47 15.71 8.56 23.44.96 3.99-4.61 4.8-7.54 4.32Z"/>
    <path fill="#000" d="M810.07 1289.37c-10.79-3.49-17.09-28.75-22.53-38.88-5.06-11.64-10.36-22.95-15.71-34.44-30.86-66.74-57.14-136.85-100.89-196.56-7.47-11.57 16.32-7.79 17.78-.31 44.22 60.42 71.18 131.99 102.29 199.28 8.95 18.81 17.05 37.62 25.28 56.65 1.32 3.04 2.81 6.02 4.79 8.7.83 1.23 1.98 2.5 1.52 4.1-2.26 4.28-8.8 2.74-12.53 1.46Z"/>
    <path fill="#000" d="M778.76 1302c-8.73-3.23-9.47-10.58 1.31-9.91 10.67-.62 21.33-1.7 31.86-3.53 6.21-.7 12.3-3.95 18.59-2.73 3.88.91 9.24 2.81 10.03 7.23 1 4.96-25.17 7.19-29.55 8.13-10.62.58-21.83 3.81-32.24.81Zm12.08 40.83c-7.62-8.26 9.26-7.04 13.68-8.63 11.36-2.05 22.72-4.12 34.08-6.22 4.5-.84 9.53.28 13.23 3.04 3.29 2.02 4.31 6.52-.37 7.45-12.22 2.24-24.46 4.46-36.69 6.69-7.88 1.51-17.45 3.86-23.93-2.33Z"/>
    <path fill="#000" d="M983.59 1653.15c-4.33-.54-9.7-2.35-11.58-6.64-2.59-7.77-4.6-15.71-7.18-23.49-10.34-29.56-20.28-60.4-33.18-88.77-26.53-58.58-55.29-116.14-80.01-175.53-3.81-8.62-7.4-17.4-12.03-25.61-.87-.98-1.71-2.37-1.2-3.58 3.64-5.77 15.13-1.81 18.53 2.68 19.57 37.94 34.14 78.43 52.94 116.82 22.76 48.46 47.34 96.33 63.97 147.36 6.27 17.32 12.05 34.78 17.27 52.43 1.28 4.03-4.59 4.57-7.53 4.33Z"/>
    <path fill="#000" d="M839.29 1331.52c-4.27-.59-9.82-2.31-11.57-6.64-2.17-10.37-4.98-20.59-7.17-30.95-3.26-11.22 20.67-5.7 19.09 2.28 2.12 10.39 5.08 20.6 7.18 31 .86 4.1-4.45 4.59-7.53 4.31Zm-539.36-134.47c-12.55-5.33-13.56-21.22-18.21-32.41-9-26.66-19.21-52.9-29.22-79.19-12.68-33.5-27.75-66.08-39.94-99.74-.48-1.43-.71-3.4.48-4.57 1.21-1.18 3.14-.86 4.58-.37 8.98 3.12 10.67 13.02 13.71 20.83 22.76 55.36 45.61 110.73 65.03 167.37 2.01 6 3.92 12.03 6.14 17.96 3.68 3.4 5.06 12.72-2.57 10.12Z"/>
    <path fill="#000" d="M216.4 995.12c-2.29-.95-2.9-3.68-2.88-5.96-.57-14.84 16.08-18.01 26.48-23.75 29.74-13.93 60.17-26.41 91.02-37.65 98.44-35.48 200.27-66 304.51-77.67 7.63 1.45 2.42 18.84-3.7 19.46-57.75 5.01-114.31 20.15-170.29 34.67-83.93 23.05-167.52 52.49-245.14 90.9Zm6.24-18.75c-.04-.05-.08-.1-.11-.14-.14-.06-.27-.13-.41-.19.19.09.36.21.52.33Z"/>
    <path fill="#000" d="M960.1 1563.17c-15.86-5.28-23.68-75.4-31.86-93.47-11.61-29.71-25.32-58.59-37.91-87.9-49.17-107.18-95.14-214.68-149-319.5-32.54-66.36-62.91-135.03-106.99-194.71-4.99-2.88-11.06-19.52-.3-14.87 6.49 4.89 11.02 11.93 15.76 18.44 37.32 55.75 67.18 116.11 95.75 176.69 38.36 75.75 74.42 152.77 109.41 230.11 18.84 45.24 40.58 89.08 59.74 133.92 16.4 35.18 31.64 70.89 38.54 109.31 1.33 5.75 2.6 11.54 4.49 17.14 1.11 6.61 11.95 25.35 2.37 24.84Zm-584.57-124.4c-13.73-1.74-17.63-21.58-23.79-32.02-4.58-9.66-9.11-19.33-13.69-28.99-13.64-28.24-27.44-56.43-42.03-84.19-17.06-30.52-36.9-59.4-56.39-88.39-7.04-10.97 11.76-8.65 18.53 5.12 10.58 15.04 20.03 30.84 30.41 46.02 24.16 35.95 42.09 75.49 61.34 114.16 8.98 18.33 17.27 37.01 26.31 55.32 1.98 4.49 9.59 13.97-.69 12.97Z"/>
    <path fill="#000" d="M248.9 1197.57c-6.51-13.98-11.92-28.49-17.34-42.92-2.64-7.92-5.23-18.12.55-25.24 3.9-3.19 9.23-3.9 13.86-5.64 6.73-1.46 27.1-8.58 32.26-5.76 4.63 4.11 4.49 13.72.72 18.37-.95.97-2.26 1.42-3.48.84-12.08 1.29-23.3 4.96-34.82 8.53 3.93 10.39 8.18 20.68 12.26 31.01 1.79 4.49 4.8 8.7 4.53 13.73.57 4.97-4.12 15.07-8.54 7.08Zm100.17-346.19c.18-5.81 3.09-11.29 9.35-11.87 9.32-2.74 18.67-5.36 28.05-7.93 73.24-20.54 148.33-34.1 224.23-39.39 46.01-2.72 92.81-6.8 138.61-.29 6.73 2.2 3.92 19.62-2.8 19.8-24.76-4.55-50.19-2.86-75.25-3.05-102.12 2.52-203.65 18.23-301.66 47.07-3 3.38-9.67 2.04-13.88 4.01-5.52 2.93-7.03-4.42-6.65-8.35Z"/>
    <path fill="#000" d="M718.35 989.77c-.12-42.75 4.61-85.53 11.41-127.7 4.14-20.81 6.1-40.33 12.31-60.27 5.88-9.53 9.74 2.53 7.95 8.44-7.8 34.99-13.89 69.97-17.39 105.52-1.99 22.98-4.53 45.98-4 69.08 1.03 8.79-8.84 20.15-10.28 4.93Zm-397.99-39.15c-8.38-1.8.4-34.53.91-41.82 3.33-16.69 7.36-33.46 14.18-49.1 2.8-4.63 4.89-13.4 10.79-14.44 4.09 1.23 3.93 7.13 3.55 10.6-.46 5.56-4.92 9.32-6.9 14.32-6.19 14.15-9.45 29.38-12.55 44.46-2.54 7.32-1.38 36.51-9.98 35.98Zm809.25 263.98c-9.86-6.39-20.06-12.31-30.81-17.08-2.75-1.4-5.81-2.15-8.66-3.23-4.68-4.96 4.76-17.93 10.93-16.62 14.39 4.58 27.49 12.65 40.19 20.68 1.21.78 1.35 2.52 1.25 3.79-.57 5.34-6.77 14.71-12.9 12.46Z"/>
    <path fill="#000" d="M1057.26 1376.45c-.71-2.12.2-4.57 1.04-6.5 8.14-18.61 17.04-36.88 25.55-55.32 6.98-15.55 13.51-27.49 21.13-41.73 9.63-18.89 19.44-37.73 27.88-57.18 2.26-5.51 3.05-11.89 8.14-15.69 2.26-2.31 7.62-3.88 8.01.78-1.38 11.58-8.17 22.1-12.71 32.73-9.13 18.97-18.77 37.68-28.75 56.22-10.1 19.59-18.96 39.79-28.38 59.72-4.54 8.4-6.81 18.37-13.02 25.71-2.07 2.27-7.14 5.42-8.89 1.26Z"/>
    <path fill="#000" d="M1143.91 1242.56c-3.66-2.37-7.59-4.1-11.75-5.08-4.7-5.21 4.92-17.76 10.87-16.72 4.56.72 8.61 3.26 12.54 5.55 1.22.73 1.34 2.56 1.25 3.79-.6 5.35-6.74 14.69-12.91 12.46Z"/>
    <path fill="#000" d="M1066.58 1382.71c-4.86-.81-2.46-7.25-.8-10.04 4.68-8.75 9.43-17.46 14.27-26.11 8.66-15.24 17.64-30.33 27.4-44.89 10.76-16.11 22.04-31.86 33.67-47.34 3.28-3.79 25.16-36.01 26.36-19.98-1.54 8.92-10.31 14.21-14.97 21.53-17.32 22.88-34.16 46.19-49.03 70.74-5.46 9.05-10.81 18.14-15.93 27.39-5.08 7.24-12.07 28.61-20.97 28.7Z"/>
    <path fill="#000" d="M1155.01 1245.3c-9.17-3.18 2.78-20.82 9.57-17.59 7.52 3.9-3.07 19.09-9.57 17.59Zm53.45 206.86c-66.37-43.06-142.59-68.44-219.03-87.01-4.8-1.33-9.91-1.98-14.66-3.14-3.31-2.84.58-7.42 2.85-9.66 3.39-3.3 8.26-5.42 12.96-4.05 61.02 13.42 121.06 32.85 177.63 59.47 19.01 8.77 36.86 19.76 54.6 30.82 5.74 5.03-9.26 16.87-14.35 13.57Z"/>
    <path fill="#000" d="M1149.57 1578.08c-1.39-.89-1.51-2.69-.99-4.12 1.66-4.58 3.27-9.19 4.78-13.82 4.36-15.99 12.52-30.37 21.78-43.98 13.4-20.58 24.19-42.72 37.61-63.28.72-5.26 16.09-15.84 16.6-6.42-1.37 5.5-5.3 9.99-8.19 14.77-2.88 4.44-5.54 9-8.1 13.63-10.71 20.27-23.34 39.39-35.15 59.01-5.87 10.96-8.52 23.22-12.99 34.76-2.06 5.35-9.42 11.65-15.35 9.45Zm-162.13-334.94c-23.28-6.82-47.3-10.72-71.14-15.07-33.33-5.61-66.35-14-99.83-18.21-5.29-4.09.42-16.09 5.58-18.2 5.36-.97 10.88 1.02 16.23 1.65 37.11 6.75 74.04 14.42 111.2 20.92 15.48 3 30.95 6.15 46.09 10.63 1.34.4 1.84 2.29 1.99 3.46.55 5.39-3.66 15.72-10.12 14.82Z"/>
    <path fill="#000" d="M960.18 1575.51c-4.57-6.91-2.1-21.15-2.84-29.51-2.1-21.97.47-43.95.36-65.95 1.46-30.4 1.38-60.93 5.02-91.19 5.29-55 18.35-108.95 24.45-163.74.85-2.94 3.85-7.83 7.27-5.23 3.3 3.76 1.89 9.38 1.68 13.93-2.88 30.29-9.52 60.05-14.44 90.05-6.48 40.3-11.77 80.91-12.36 121.78-1.02 27.56-2.25 55.16-2.38 82.73.84 9.3.89 18.62.85 27.94.3 4.66 1.49 9.46-.33 13.97-.86 2.91-3.86 7.84-7.28 5.22Z"/>
    <path fill="#000" d="M1026.84 1279.22c-9.51-3.99-19.67-6.29-29.54-9.2-4.2-1.43-11.34-1.82-10.45-7.89-.27-4.74 6.91-17.33 12.18-12.22 9.41 3.03 18.99 5.25 28.37 8.37 3.51 1.62 9.96 1.63 10.14 6.56.3 5.33-4.29 15.63-10.7 14.38Z"/>
    <path fill="#000" d="M1004.93 1369.26c-1.39-1.42-1.3-4.02-.95-5.81 4.01-20.9 9.02-41.63 16.97-61.41 4.2-10.06 7.07-20.64 11.34-30.64 1.48-4.27 9.68-11.5 10.76-3.22.2 2.42-.54 4.86-1.52 7.06-2.63 6.89-4.75 13.96-7.44 20.83-5.72 14.35-10.83 28.92-14.1 44.04-2.3 8.03-2.35 16.87-6.2 24.36-1.66 2.75-5.43 7.41-8.86 4.79Zm99.87 132.92c-37.69-19.3-76.19-37.07-115.78-52.12-5.83-2.88-17.13-5.52-20.71-10.62-.66-6.41 5.53-13.04 11.61-14.25 1.3-.21 2.23.49 3.2 1.15 4.26 2.54 8.97 4.31 13.55 6.16 14.98 6.07 30.08 11.83 44.99 18.07 25.28 11.26 50.33 23.16 74.97 35.74 6.22 4.39-6.14 18.21-11.83 15.87Z"/>
    <path fill="#000" d="M1047.99 1618.89c-1.58-3.47 1.28-7.15 2.5-10.3 3.95-8.52 7.72-17.12 11.17-25.86 7.05-17.61 14.1-35.27 22.95-52.07 6.56-12.81 14.84-24.75 20.09-38.13 1.97-3.84 11.58-11.96 13.25-4.37-1.72 11.38-9.76 20.84-14.86 30.93-5.33 9.56-10.27 19.3-14.79 29.26-7.08 15.97-13.02 32.44-20.13 48.39-3.45 6.57-5.17 14.34-10.41 19.77-2.33 2.2-7.06 5.66-9.77 2.38Zm89.68-139.19c-52.92-28.61-108.53-51.71-164.58-73.35-6.48-2.65 1.26-12.3 4.9-14.54 2.37-1.77 5.45-2.43 8.1-.87 3.61 1.44 7.22 2.89 10.84 4.32 43.89 16.84 87.25 35.18 129.22 56.4 7.86 3.93 15.58 8.09 23.36 12.16 3.77 1.97.55 7.72-1.14 9.98-2.43 3.06-6.43 7.09-10.7 5.9Z"/>
    <path fill="#000" d="M1062.26 1623.61c-.93-1.54-.35-3.56.2-5.11 6.7-19.93 16.89-38.33 25.86-57.26 15.98-31.93 32.92-63.32 51.81-93.34 2.41-2.63 6.71-6.41 10.36-4.19 2.25 2.49.27 6.28-1.22 8.68-11.82 19.88-23.31 39.92-34 60.4-10.85 19.38-20.02 39.61-29.88 59.49-3.28 7.45-6.32 15.04-9.06 22.7-.84 2.36-2.52 4.52-4.3 6.24-2.34 2.24-7.05 5.65-9.77 2.39Zm108.19-159.54c-17.7-10.7-36.11-20.22-55.25-28.08-43.75-18.11-88.63-34.29-135.16-43.5-7.94-2.89 4.61-17.74 10.18-16.33 66.78 14.64 132.87 37.54 192.07 72.03 6.2 4.48-6.17 18.2-11.84 15.88Z"/>
    <path fill="#000" d="M1099.17 1607.41c-.92-1.53-.36-3.57.2-5.11 3.31-9.06 6.89-18.01 10.7-26.87 11.56-28.3 25.65-57.87 41.4-83 5.49-9.65 10.14-18.26 15.15-27.97 2.44-4.88 4.63-10.33 9.41-13.41 5.96-4.2 10.16-.68 6.61 5.97-10.48 20.98-22.31 41.2-33.98 61.51-11.37 19.83-19.21 41.4-28.45 62.26-4.07 7.84-5.04 17.8-11.27 24.23-2.35 2.23-7.05 5.65-9.77 2.39Zm-55.3 22.7c-.91-1.52-.38-3.59.2-5.11 2.63-7.12 5.51-15.48 13.01-18.73 1.41-.56 3.32-.98 4.59.14 3.27 4.16-2.91 10.5-3.74 15.07-1.64 4.39-9.32 13.24-14.06 8.63Zm133.84-231.3c-18.43-9.11-37.05-17.84-55.87-26.12-12.46-5.19-25.32-9.37-38.13-13.61-2.18-.57-5.11-.81-4.94-3.76.3-4.72 4.02-8.71 7.82-11.19 6.38-4.12 13.63 1.8 20.12 3.13 28.97 9.25 56.21 23.01 83.52 36.22 5.86 4.89-6.68 17.71-12.52 15.33Zm13.02 153.31c-.45-1.9.49-3.88 1.34-5.51 4.59-8.89 9.38-17.68 14.22-26.43 11.07-19.44 23.15-38.31 33.45-58.18 3.07-7.03 7.53-14.01 8.12-21.78-2.87-3.89-8.57-5.66-12.56-8.52-5.16-4.06 3.41-12.91 7.46-14.72 1.39-.67 3.57-1.47 5.07-.61 3.97 2.28 7.89 4.71 11.74 7.19 2.45 1.31 3.83 3.88 3.9 6.62-.31 11.99-6.98 22.87-12.04 33.44-7.45 14.01-15.61 27.64-23.7 41.29-5.29 8.79-10.29 17.71-15.17 26.74-4.29 6.71-6.38 15.33-12.88 20.3-2.34 1.91-7.65 4.28-8.95.17Zm46.9-26.44c-.44-1.9.49-3.88 1.34-5.51 6.24-11.99 13.01-23.71 19.13-35.76 1.62-4.26 4.25-8.01 8.16-10.43 7.32-4.47 9.87 1.02 5.95 7.33-2.85 5.78-5.95 11.43-9.04 17.08-3.88 7.07-7.71 14.18-11.43 21.33-1.18 2.27-3.13 4.29-5.16 5.79-2.32 1.88-7.65 4.3-8.95.17Zm-50.38-164.03c-6.78-5.08-13.69-10-20.05-15.61-3.36-5.4 4.48-12.93 9.31-14.74 1.51-.52 3.28-.77 4.58.35 2.97 2.55 5.96 5.04 9.08 7.41 3.63 2.77 7.32 5.45 10.97 8.19 4.16 5.37-8.22 18.27-13.89 14.4Zm86.76 42.78c-5.93-3.55-11.98-6.91-18.18-9.97-3.45-2.31-9.57-1.98-7.46-7.73 1.92-5.19 7.16-10.94 13.11-10.56 8.79 3.22 16.94 8.26 25.06 12.93 6.03 4.59-6.91 17.93-12.53 15.33Zm-147.7-78.04c-6.2-2.7-12.35-5.57-18.45-8.42-.49-.34-1.09-.63-1.32-1.24-1.88-6.19 6.78-14.99 12.88-14.47 6.51 2.77 12.87 6.05 19.42 8.8 1.5.66 1.69 2.49 1.46 3.91-1.41 5.73-7.6 12.78-13.99 11.42Z"/>
    <path fill="#000" d="M1192.89 1363.71c-5.2-4.97 8-18.73 13.55-14.65 5.21 4.94-7.94 18.69-13.55 14.65Zm109.15-16.04c-3.42-.91-6.83-1.99-10.34-2.47-4.3.47-4.61-4.06-2.59-6.79 6.06-10.22 16.02-8.46 25.65-5.17 7.26 4.45-7.17 16.44-12.72 14.43Z"/>
    <path fill="#000" d="M1310.22 1347.33c-2.48-1.34-5.17-2.43-7.32-4.28-3.84-5.84 10.47-17.29 15.46-12.76 2.68 2.15 8.8 2.75 7.12 7.37-2.11 5.54-9.04 11.72-15.26 9.67Z"/>
    <path fill="#000" d="M1306.53 1350.64c-2.5-1.92-7.87-2.31-7.49-6.27 1.41-6.06 8.34-11.87 14.7-11.05 2.45.9 4.68 2.51 7.07 3.59 1.45.74 1.36 2.77.98 4.06-2.11 5.54-9.04 11.71-15.26 9.67Zm-75.99-42.19c-8.54-3.69-17.25-6.98-26.04-10.06-11.28-2.06 6.32-19.47 13.87-14.01 8.4 2.94 16.73 6.08 24.89 9.62 1.48.66 2.16 1.73 1.98 3.39-1.41 6.01-8.36 12-14.7 11.06Zm-95.13-38.44c-.21-1.89.92-3.85 1.99-5.31 2.67-3.66 7.14-6.86 11.8-6.86 1.53 0 2.76 1.14 2.92 2.62.21 1.89-.92 3.85-1.99 5.31-2.67 3.66-7.14 6.86-11.8 6.86-1.53 0-2.76-1.14-2.92-2.62ZM903.94 461.22c-2.11-1.49-3.83-3.61-5.09-5.86-1.14-2.04-2.18-4.59-1.89-6.99.19-1.6 1.15-3.03 2.9-3.03 1.48 0 2.88.74 4.05 1.57 2.11 1.49 3.83 3.61 5.09 5.86 1.14 2.04 2.18 4.59 1.89 6.99-.19 1.6-1.15 3.03-2.9 3.03-1.47 0-2.87-.74-4.05-1.57ZM285.63 683.47c-12.83-4.58-13.17-28.96-18.71-40.45-3.9-12.03-7.89-24.01-12.45-35.8-33.44-80.77-76-161.2-141.99-220.07-9.99-6.92-9.61-24.32 4.54-10.75 64.25 58.52 107.63 135.63 142.27 214.44 8.69 20.25 15.97 41.07 22.54 62.09.59 5.82 13.61 31.74 3.8 30.54Z"/>
    <path fill="#000" d="M430.98 425.67c-102.44-25.11-207.15-44.84-313.08-41.48-3.86-.59-9.62 2-12.65-.24-3.05-6.65 3.68-16.65 10.83-17.13 85.99-3.78 172.13 7.39 256.07 25.52 22.6 5.01 45.03 10.7 67.65 15.6 6.9 3.76-2.6 18.58-8.82 17.73Z"/>
    <path fill="#000" d="M587.12 739.24c-4.93-1.65-6.96-7.47-7.92-12.13-3.36-12.01-7.54-23.8-11.44-35.64-35.35-95.84-73.82-193.11-140.09-272.22-4.75-5.77-2.92-21.41 5.85-10.37 56.96 67.21 92.71 148.51 125.03 229.64a1036.57 1036.57 0 0 1 27.57 76.66c1.14 5.59 9.88 23.56 1 24.06Z"/>
    <path fill="#000" d="M577.94 743.63c-97.46-22.15-197.08-33.59-294.96-53.7-7.11-2.83 2.18-19.15 8.16-18.04 62.87 12.03 126.02 23.11 189.23 33.31 35.52 5.26 70.75 12.28 105.73 20.38 7.12 2.87-2.17 19.14-8.16 18.05Z"/>
</svg>