<svg xmlns="http://www.w3.org/2000/svg" width="2100" height="2100" fill="none" viewBox="0 0 2100 2100">
  <path fill="#FFABD4" d="M405.02 1639.55 231 700.64c-24.88-134.26 63.78-263.27 198.04-288.15l931.64-172.68c134.26-24.88 263.27 63.78 288.15 198.04l174.02 938.91c24.88 134.26-63.78 263.27-198.04 288.15l-931.64 172.68c-134.25 24.88-263.26-63.78-288.15-198.04Z"/>
  <path fill="#fff" d="M721.79 359.61c-14.44 5.84-31.44 11.55-44.87 3.65-11.52-6.77-15.89-21.22-17.33-34.5-2.74-25.14 1.61-51.02 12.43-73.89 2.24-4.75 3.75-12.15-1.26-13.74-1.59-.51-3.32-.09-4.93.39-28.17 8.45-48.43 37.96-46.2 67.28 2.23 29.32 26.73 55.43 57.53 62.04-76.62 10.54-145.97 63.67-176.1 134.91-53.75 14.47-87.24 70.23-96.36 125.14-9.12 54.91.45 110.95 2.68 166.57 1.52 37.89-.35 76.17 6.61 113.45s24.22 74.59 53.28 95.42c1 32.73 20.04 64.35 48.5 80.55 28.46 16.2 65.36 16.43 94.02.58-10.03-5.94-23.92 2.03-27.42 13.14-3.49 11.12.82 23.28 7.18 33.04 6.36 9.76 14.74 18.12 20.74 28.11 10.71 17.83 12.94 40.51 5.91 60.08 2.58-18.8 11.53-36.66 25.04-49.98 34.16 52.29 49.48 116.61 42.55 178.69-8.59-10.51-24.69-9.4-38.11-7.34-14.79 2.27-30.28 4.83-42.16 13.93-18.87 14.45-23.24 40.94-23.2 64.7.04 23.77 2.82 48.67-4.34 65.23-98.25 65.05-201.5 122.56-307.14 176.82 95.78 54.06 185.76 117.83 280.59 173.54 94.83 55.71 196.02 103.81 304.39 122.58 108.37 18.77 225.24 5.89 318.13-53.01 100.98-64.04 162.65-173.25 221.23-277.68 0 .64 0 1.29-.34 5.39-54.72-25.58-109.45-51.17-164.17-76.75-21.46-10.03-43.92-20.89-57.45-40.34-11.72-16.85-15.15-37.97-23.45-56.74-31.97-72.34-130.7-101.28-152.87-177.2 20.4-20.4 40.8-40.8 60.66-59.79 68.81-82.5 108.35-188.94 110.08-296.36.33-20.44-.64-41.17 4.1-61.06 4.73-19.89 16.29-39.38 34.9-47.84-6.12-69.17-12.33-138.82-31.15-205.66s-51.23-131.46-102.62-178.17c-34.51-31.37-76.31-53.62-118.98-72.46-24.98-11.03-51.92-21.2-78.93-17.24-28.6 4.2-52.41 23.46-79.09 34.58-26.7 11.1-63.63 10.65-72.08-20.06Z"/>
  <path fill="#fff" d="M1267.47 1033.71c-10.78 40.3-34.58 77.02-66.98 103.31 33.69 11.64 59.73 42.99 65 78.24 7.04-25.45 21.98-48.65 42.23-65.59 3.32-2.78 7.14-6.16 6.76-10.48-.41-4.63-5.31-7.25-9.41-9.43-29.68-15.77-46.41-52.63-37.6-96.05Zm509.05-447.32c-16.71 41.87-46.06 78.61-83.2 104.16 46.2 7.74 86.16 44.71 97.48 90.17 7.89-21.45 15.88-43.11 28.45-62.2 12.57-19.09 30.31-35.65 52.15-42.38-41.64-16.61-76.43-49.71-94.88-89.75Zm-550.47-286.34c-2.79 20.12-14.06 38.93-30.49 50.89 10.2 2.07 18.43 9.99 23.4 19.13 4.97 9.14 7.17 19.49 9.32 29.67 7.36-19.42 20.89-36.44 38.15-48-15.66-12.96-29.23-28.46-40.38-51.69Zm-788.83-50.9c2.45 16.13-5.3 33.36-18.99 42.23-3.07 1.99-6.84 4.29-6.85 7.95-.01 3.36 3.22 5.68 5.96 7.62 15.6 11.04 26.17 28.92 28.3 47.92 6.64-19.22 17.54-36.96 31.69-51.57-16.74-11.96-29.76-29.07-40.11-54.15Zm-94.8 863.71c-5.93 37.1-24.85 71.99-52.72 97.19 34.54 18.2 60.4 52.1 68.84 90.22 3.6-37.89 21.13-74.3 48.5-100.74-29.17-19.38-52.28-47.75-64.62-86.67Z"/>
  <path fill="#000" d="M577.81 1041.79c-15.07-7.04-36.35-13.15-39.67-31.89-2.93-12.76 6.69-22.13 15.28-29.9-11.14-2.7-22.46-5.31-33.96-5.5-9.11 4.21-10.08-22.7 1.24-20.01 13.76 1.18 28.14 2.96 40.9 8.41 7.74 5.1 7.8 16.88 4.13 24.52-3.69 7.39-10.23 12.67-15.93 18.45 8.39 7.63 19.39 11.68 29.64 16.19 1.69.68 2.62 2.33 3.23 3.97 1.63 4.49 1.81 15.98-4.86 15.76Zm258.36-257.62c8.39 7.03 16.6 18.9 11.26 30.01-1.7 5.45-11.17 13.56-11.89 3.19-1.87-7.05-7.69-12.2-13.33-16.43-29.64-19.97-80.4-11.34-108.4 8.4-8.7 6.44-15.44 14.99-21.73 23.7-1.92 2.57-5.79 8.59-9.64 5.48-3.3-4.32-.63-10.92 1.94-15.02 20.73-32.88 52.81-51.44 91.49-54.17 20.84-2.13 43.84.89 60.3 14.84Zm300.01 16.75c5.44 7.7 11.82 16.99 6.61 26.51-10.33 17.89-7.71-15.61-39.6-25.77-26.83-9.83-61.13-4.09-78.27 20.22-4.31 4.41-4.25 15.34-11.25 15.81-9.33-5.7-.13-22.69 4.19-29.56 9.54-15.73 26.02-26.73 43.76-31.07 26.21-5.83 58.64.67 74.56 23.86Zm10.38-88.41c6.02 3.81 2.46 23.49-5.72 21.37-.05-.03-.1-.06-.16-.08-2-.61-4.08-.95-6.19-1.13-.94.49-2.01.68-2.95.07-.14-.09-.29-.18-.43-.27-25.48-.56-50.83 1.85-76.28.34-10.3-.94-25.66-1.35-27.69-14.17-2.62-13.84 7.75-26.94 21.74-27.9 22.46-2.49 45.13 2.93 66.24 10.29 7.17 2.68 14.31 5.54 20.85 9.55 3.55.25 7.34.39 10.59 1.93Zm-446.32 7.15c-4.85-1.03-5.3-7.42-4.74-11.47-.03-20.99 51.33-31.3 68.21-33.9 29.38-3.53 60.29-3.85 88.21 7.13 6.26 2.15 13.99 5.23 13.56 13.15 3.98.14 9.76-.78 10.72 4.39 1.55 5.55-.22 17.58-7.29 18.06-25.37-1.42-50.9 1.53-76.33.63-24.51-.34-49.11-2.46-73.55.2-6.27.48-12.5 2.02-18.79 1.81Zm296.95 281.91c-1.75-.92-2.44-3.21-2.75-5-2.62-14.32 12.48-22.34 19.74-32.55 4.03-6.22 16.91-15.63 7.47-22.31-20.09-13.21-42.64-23.1-44.59-50.35-.92-10.55-2.15-22.82 3.67-32.17 3.32-4.87 7.61-1.97 8.2 3.03-.99 18.73-2.81 30.24 14.62 42.51 14.18 11.3 35.3 15.72 33.51 37.94-.11 16.51-10.44 30.13-21 41.87-3.67 3.07-14.89 19.71-18.87 17.03Zm-15.42 191.22c.15-1.33.2-2.66.01-3.98-5.08-25.55-28.17-42.63-51.61-50.72-9.06-3.79-18.54-4.77-28.1-4.59a81.63 81.63 0 0 0-6.71 1.8c-8.16 2.46-16.04 5.51-22.62 9.08-1.03.34-2.05 1.06-3.07 1.84-4.8 9.86-11.04 21.41-3.7 30.8 17.7 20.04 61.72 26.85 87.53 25.3 10.25-.93 19.99-4.23 28.27-9.53Zm.73-116.49c6.07.51 12.19 1.66 17.98 3.67-6.7-9.84-17.33-16.47-29.7-15.96-19.38.05-38.28 7.41-52.67 20.36-.06.06-.13.11-.19.17 20.36-7.6 43.06-9.06 64.58-8.24Zm32.67-3.59c12.51 33.29 6.92 74.82-4.77 107.7-13.7 34.95-50.78 49.54-86.21 43.07-71.07-9.39-86.77-38.47-63.63-87.1.07-.34.14-.66.21-.98.5-2.33 1.73-4.42 3.47-6.32 3.67-6.89 8.05-14.15 13.08-21.77 14.04-19.31 30.3-37.67 49.89-51.49 18.95-11.83 44.59-19.04 65.89-9.57 10.29 5.64 17.44 15.91 22.07 26.46Z"/>
  <path fill="#000" d="M1080.79 812.8c15.27 10.4 22 30.05 21.07 48.16-.3 22.41-8.75 65.12-39.62 55.78-29.45-10.26-29.25-49.95-22.51-75.17 4.43-17.97 21.7-33.85 41.06-28.77Zm-263.55 32.57c4.77 26.3-2.57 79.82-39.35 73.44-45.01-4.04-42.02-86.61-16.64-110.16 19.35-17.21 40.87-8.19 51.93 12.97 2.25 5.11 3.47 10.92 2.29 16.46.68 2.41 1.28 4.84 1.77 7.29Zm223.56 1083.2c2.63 9.64-6.86 23.44-10.6 7.06-4.22-29.84-6.99-59.86-10.75-89.76-2.54-20.24-5.48-40.47-9.62-60.45-1.36-7.16-4.83-14.35-2.79-21.71 1.99-8.83 9-7.08 10.18 1.18 13.19 53.65 15.79 109.15 23.58 163.68Zm-153.02-223.72c-40.19-12.66-80.78-27.93-112.75-56.28-11.33-10.88-42.9-38.6-26.19-54.18 2.75-.94 4.66 2.34 5.46 4.49 2.61 4.4 5.69 8.46 8.83 12.5 10.7 13.1 24.06 23.76 38.05 33.17 26.86 17.89 57.92 28.33 88.41 38.26 6.67 2.92 6.68 22.31-1.81 22.04Zm-136.94-88.5c.22-.11.44-.21.66-.33.02-.04.04-.08.07-.12-.23.17-.48.32-.73.45Zm53.49-60.84c.07-.02.14-.03.21-.05-.31-.65-.65-1.28-1.02-1.88-4.44-7.38-12.81-11.29-20.73-14.06-.15.3-.3.59-.44.89 0 .01-.01.02-.01.03 3.03 8.42 11.98 15.34 21.09 15.11.3 0 .6-.02.9-.04Zm11.23-7.13c3.23 11.15 1.19 30.88-14.22 29.5-20.69-2.09-33.31-25.27-29.62-44.6.11-11.12 17.05-29.25 22.7-11.7 10.73 5.1 18.44 15.3 21.14 26.8Zm181.71 249.7c3.36 13.45 1.16 40.55-18.22 37-21.41-6.68-18.39-57.68 5.47-57.67 9.51 1.63 12.15 12.43 12.75 20.67Z"/>
  <path fill="#000" d="M792.6 1535.14c7.43-3.14 11.09 8.37 10.92 18.43-.01.66-.04 1.33-.09 1.97-.51 7.27-3.14 13.15-7.91 11.04-4.15-2.43-5.81-6.9-8-10.81-3.36-4.82-8.15-9.48-8.85-15.53-.99-4.77 1.39-18.31 8.35-13.16 2.08 2.48 3.48 5.56 5.58 8.06Z"/>
  <path fill="#000" d="M617.98 1159.86c.17-15.12-2.14-30.24-5.91-44.87-.9-5.28-3.6-10.33-5.75-15.4-6.71 4.66-14.11 8.23-21.95 10.22 12.92 18.47 26.92 31.17 33.61 50.05Zm45.62-807.11c-20.86-30.3-8.28-69.13 6.45-99.27-58.43 23.97-62.13 68.17-6.45 99.27Zm227.71 166.38c30.06-43.14-20.24-95.31-66.43-92.49 18.32 15.45 36.37 31.8 51.02 50.85 9.15 12.15 12.12 27.07 15.04 41.6.12.06.24.04.37.04Zm95.18-59.73c-13.8-13.83-30.8-24.72-49.71-29.97-7.95-2.21-16.21-3.8-24.5-3.04-.27-.09-.53-.2-.77-.32-.94.21-1.87.42-2.81.64 26.28 10.04 51.84 21.84 77.79 32.69Zm96.63 1096.27c.71-3.32.48-7.37.7-11.23-11.35 15.43-23.45 30.33-34.3 46.1-8.77 17.79-13.05 37.75-21.69 55.63-9.28 21.84-20.98 42.55-32.19 63.44-.99 1.4-2.32 3.76-3.88 6.65 17-11.85 34.55-22.94 50.57-36.13 35.78-30.42 34.76-81.55 40.79-124.46Zm61.81 314.01c2.02-39.18 6-78.61.75-117.7-1.87-20.17-5.48-39.92-10.17-59.4 6.98 53.72 8.7 108.15 8.77 162.26-.07 19.15-1.51 38.7-2.63 57.7.41-.78.9-1.5 1.49-2.14-2.11-11.46 2.56-32.73 1.79-40.72Zm34.03-283.3c-13.51-29.03-24.18-59.31-29.42-91.05-4.86-24.88-5.32-51.87-29.17-66.71-5.91-4.58-11.7-9.29-17.41-14.11-.45 3.97-1.82 7.55-3.97 8.53-16.66 10.26-28.81 26.11-39.85 41.95-11.77 17.23-23.76 34.71-30.87 54.48-1.13 4.25-3.55 8.59-3.17 13.03.8 4.58-1.03 17.71-7.95 13.5-.87-1.31-1.57-2.76-2.1-4.33-1.06-.37-2.32-1.35-3.8-3.08-3.53-11.54-1.27-24.3-2.41-36.28.51-4.15-.51-11.06-.86-17.76-1.75-21.64-2.02-43.49-1.91-65.41-5.75-.05-11.47-.31-17.19-1.17-33.44-7.17-64.34-23.27-95.19-37.57-75.31-38.59-139.26-96.46-190.24-163.6-11.58-13.5-18.51-29.77-24.34-46.34-.53-1.3-.83-3.23-.87-5.33-1.32-1.55-2.62-3.11-3.92-4.68 6.61 51.09 11.75 102.31 14.54 153.71-.02.56-.04 1.12-.07 1.68a80.2 80.2 0 0 0-.04 1.57v.08c-.01.55-.02 1.09-.02 1.64 0 2.74.12 5.48.34 8.23.05.63.1 1.26.16 1.89 0 .05.01.1.01.14.05.55.1 1.1.16 1.64.02.24.05.48.07.71.12 1.13.24 2.25.38 3.37v.01c.16 1.31.34 2.61.52 3.92l.09.65c-.14.06-.28.11-.42.17.37 9.64.65 19.28.84 28.93.4 2.03.52 6 .11 9.79 32.62 10.28 65.05 21.27 96.8 33.89 20.92 11.62 19.25 47.98 27.57 68.65 6.24 22.22 20.61 40.7 35.82 57.59 13.39 12.84 23.85 28.71 26.71 47.35 1.52 8.61 2.26 17.35 2.87 26.06 1.29 12.4-1.26 26.51 7.71 36.59 12.6 17.5 68.33 54.16 79.32 79.2 3.35-5.89 7.8-11.64 10.14-16.54 5.77-9.95 11.16-20.1 16.61-30.23 18.14-31.54 31.89-64.9 43.48-99.19 13.25-25.86 34.58-46.7 50.29-71.09 9.74-14.05 18.27-28.86 26.94-43.58 3.36-4.38 4.9-11.99 10.79-13.34 7.05 2.16 6.39 13.5 3.95 19.07-1.87 2.66-3.69 5.36-5.45 8.1 1.34 5.02.65 12.91.51 15.85 1.21 19.75 8.51 38.93 20.99 54.31 5.47 7.28 19.57 20.7 32.92 35.11Zm-17.26-843.64c.8-3.52.11-25.01 1.75-39.88-23.94-48.09-49.73-95.48-64.51-147.37-3.27-10.95-6.5-21.92-9.41-32.98-15.23 40.64-43.33 75.55-76.39 103.49-19.13 14.87-52.25 44.58-75.86 47.25-15.3-1.11-16.79-21.23-14.62-33.04 2.62-14.81 10.14-28.23 17.7-41.04-36.35 22.11-100.9 50.54-143.61 43.18-18.79-8.75-13.36-35.42-3.61-49.34-35.01 26.68-67.42 56.99-94.43 91.84-16.51 21.19-32.25 42.97-47.84 64.85.74 6.13-2.35 11.67-4.41 17.27-17.94 52.7-20.46 109.11-34.96 162.68-1.92 6.98-4.42 15.23-10.87 19.34-33.97 12.19-47.86-40.59-79.64-41.89-34.89-3.35-54.41 34.07-56.07 64.31-2.11 55.72 42.42 110.35 98.07 117.6 18.02 1.9 35.3-5.52 48.09-18.01 3.97-2.41 9.06-13.02 13.73-10.83 3.12 2.3 4.18 6.37 4.35 10.27 3.71 2.31 5.28 8.24 8.11 11.38 43.42 72.89 106.48 134.12 181.1 174.66 41.12 20.09 85.64 40.97 132.31 33.41 48.73-14.17 82.74-56.91 115.06-93.65 61.25-77.83 100.53-175.7 95.01-275.71-.62-22.63-1.25-45.27-.88-67.92-8.33-7.1-1.64-27.37-2.28-37.29 1.71-24.17 2.92-48.38 4.11-72.58Zm237.15 879.4c1.41 4.98 0 18.11-7.29 15.48-22.93-14.59-49.27-21.51-74.73-30.25-45.1-15.26-90.39-32.25-130.35-58.55-.58-.38-1.16-.78-1.74-1.2 8.25 13.31 19.43 24.69 32.56 33.27 24.83 15.68 52.22 26.86 78.58 39.7 14.92 6.86 29.93 13.52 44.93 20.21 12.16 3.61 15.8 17.33 14.08 28.7-6.53 36.87-30.27 67.65-47.9 99.85-26.25 54.1-62.52 103.64-112.03 138.65-7.98 5.91-46.78 28.62-52.84 20.67-1.27-2.32-2.03-5.45-2.06-8.59-1.86 3.65-5.05 5.76-7.94.33-4.1-14.96 1.13-31.37.58-46.82 1.35-74.93-1.47-150.57-15.98-224.26-4.15-27.82-16.68-53.66-23.07-80.8-2.34 20.64-6.86 43.55-7.17 48.66-7.08 58.43-32.77 82.83-80.36 112.92-16.23 10.44-31.59 22.43-46.28 34.84-25.02 17.43-12.58 52.22-11.97 77.76 2.61 25.12 4.85 50.29 7.76 75.38.32 7.29 9.31 40.2-4.72 34.04-6.36-12.53-5.22-28.16-7.58-41.92-1.3-12.06-2.5-24.14-3.7-36.21-2.21-24.5-5.72-48.93-6.12-73.55-.96-27.07 6.13-44 25.46-59.47-14.72-17.91-32.08-33.35-49.87-48.15-14.79-12.78-32.11-25.81-36.59-45.95-3.12-15.21-1.86-30.99-4.04-46.35-1-16.19-9.69-29.93-21.26-40.78-11.83-13.24-23.43-27.02-31.68-42.83-13.87-24.5-13.72-54.15-25.46-79.15-9.98-8.21-24.07-10-35.76-15.27-31.93-11.33-64.13-21.97-96.59-31.64-.98.71-2.2.97-3.69.58l.38.21c-12.76-4.79-26.18-8.41-38.46-14.32-2.3-2.23-3.53-5.26-3.91-8.5-9.33 2.59-18.92 4.9-25.97 10.8-9.43 18.83.2 72.77-4.44 104.72 21.13 60.23 35.44 123.46 61.7 181.71 13.61-9.9 18.25-29.2 26.65-43.45 5.28-10.84 10.57-21.67 15.56-32.63 21.23-45.16 26.64-95.45 43.54-142.05 3.46-9.43 10.16-2.09 10.02 4.78.83 7.25-3.57 13.62-5.26 20.44-3.26 10.7-6.09 21.49-8.77 32.34-9.71 43.96-23.78 86.69-43.96 126.91.96-1.21 2.21-1.98 3.73-1.48 1.99.46 3.22 2.05 3.95 3.99 6.29 8.69 11.76 18 16.99 27.35 11.95 21.69 24.3 43.15 35.7 65.15 23.29 42.25 39.45 87.9 63.07 129.93 12.71 24.6 27.13 48.26 41.41 71.97 2.25 1.73 3.54 5.09 4 8.71 4.85 3.57 3.72 13.49 1.38 18.25-1.1 6.49-28.96 1.66-34.88 1.72-113.84-11.14-138.96-31.36-228.97-94.83-40.08-26.06-83.43-46.63-123.76-72.35-15.34-9.24-30.53-19.66-48.11-24.08-4.25-.13-6.3-4.92-6.44-10.05-25.1-11.77-57.59-31.81-61.98-54.77-4.37-32.13 31.52-46.54 55.23-58.08 63.58-28.43 85.84-36.82 133.16 21.99-13.09-25.99-26.81-48.37 2.13-69.98 5.34-4.2 48.28-34.6 56.46-30.99-6.5-20.2-13.04-41.26-19.42-61.28-1.61 1.93-3.5 3.39-5.74 4.3-35.87 13.71-31.58 11.58-58.52 39.05-17.63 16.33-39.47 26.98-60.71 37.8-40.36 20.35-83.23 35.16-123.72 55.24-19.98 10-39.51 20.85-59.34 31.14-.63.34-1.22.5-1.77.5-3.05 0-4.9-4.69-5.3-7.57-.67-4.61-.44-11.03 3.54-14.13 57.72-33.2 119.69-57.21 180.07-84.89 30.32-14.27 59.29-31.46 81.29-57.19 11.54-14.21 31.48-14.21 45.57-24.24 4.18-35.34-2.97-71.49 3.46-106.59 3.42-24.09 21.84-24.94 40.95-31.66 21.48-7.1 42.69-15.02 63.73-23.32-.15-4.74-.41-9.45-.86-14.12-1.09-26.29-3.34-52.5-6.36-78.62-7.35.68-26.83-30.2-29.63-36-4.33 12.56-13.09 37.66-28.41 38.43-11.67-7.52-4.84-24.15-3.57-35.27 9.69-36.15-28.86-55.62-41.29-84.89-.44-.02-.88-.04-1.31-.07-49.57-4.33-88.33-42.75-104.72-88.63-.92.14-2-.07-3.25-.73-4.72-4.15-15.68-16.55-22.57-28.68-1.3.19-2.86-.64-4.67-2.97-27.05-49.25-38.5-106.21-28.56-161.82-6.18 11.28-46.67 80.76-44.92 34.51 12.7-25.33 34.31-46.95 40.33-75.76 9.93-41.51-12.16-81.9-9.72-123.6C389.79 593.36 438.41 537 487 491.01c2.65-2.01 6.64-6.33 10.71-9.58 4.17-7.41 9.32-14.55 12.19-20.39 30.95-53.6 88.77-75.27 145.73-90.22-36.38-20.07-58.6-70.67-31.67-106.8 7.36-13.92 57.62-53.79 61.74-21.37 1.23 8.42-2.29 16.29-5.85 23.69-7.35 17.06-17.09 34.57-15.85 53.71 2.1 18.53 22.32 34.08 40.42 34.14 9.6-2.41 17.45-30.81 24.17-39.96 25.26-48.15 74.37-89.47 131.34-85.55 17.14 2.55 47.81 3.63 47.97 26.6.66 17.23-19.68 9.81-30.51 12.03-12.05.59-24.07 1.77-35.9 4.12-35.47 6.61-64.52 29.86-86.43 57.48-11.65 14.33-23.08 29.1-32.05 45.3-2.43 4.19-.34 10.85-5.4 13.43-6.1.81-6.92-8.22-7.26-12.61-.3.15-.6.29-.91.42 2.13 12.33-2.85 18.51-15.16 13.15-10.83-.37-21.67.98-32.22 3.38-68.36 18.1-115.4 36.01-149.67 94.52.55 4.04.15 8.39-2.33 11.61-2.08 1.37-4.14 2.8-6.16 4.27-.5 1.02-.99 2.04-1.48 3.08-1.46 4.08-5.03 8.5-8.27 4.51-23.08 19.16-42.45 43.84-60.88 67.22-22.7 30.99-36.79 68.9-32.64 107.48 3.87 30.89 14.21 61.3 11.27 92.76 12.62-7.07 8.92 22.96 7.13 29.01-3.23 17.62-6.44 35.27-7.74 53.15-1.29 20.11.09 40.41 5.32 59.92 4.71 16.5 11.14 32.48 18.63 47.92.38-.2.78-.38 1.2-.55 2.25.39 3.46 3.32 4.19 5.14 3.9 7.68 8.66 14.93 14.23 21.51-1.49-10.77-1.72-21.64-.56-32.31 1.03-12.87 4.8-26.74 10.95-39.09-1.03-.05-2.15-.71-3.33-2.2-23.76-36.3-12.53-80.8-12.19-121.27-.3-20.42-2.59-40.73-5.1-60.99-2.6-17.81-10.6-81.18 22.96-52.8 3.3-48.84 19.5-97.08 49-136.39 14.72-19.61 31.53-37.82 51.02-52.78 8.87-5.81 36.84-29.14 45.44-17.45 4.09 7.38 2.02 16.6-1.91 23.62-10.51 18.11-22.07 35.67-31.73 54.27 35.12-43.21 72.96-84.02 111.26-124.41 8.46-9.15 16.83-18.39 25.43-27.42 3.05-2.81 6.03-6.32 9.41-9.04-1.47-6.28.31-15.82 5.41-18.22 48.35-37.28 111.62-52.04 171.69-55.25 52.38-1.78 102.69 16.44 154.64 19.96 10.91.61 21.88 1.78 32.8 1.06 9.56-3.9 10.52 11.06 8.16 17.07-.92 3.12-3.43 4.99-6.67 5.14-16.15 5.31-32.08 11.34-48.41 16.13 29.15 15.33 53.63 37.33 79.07 57.88 18.84 14.66 38.99 28.62 53.67 47.74 21.86 28.45 31.97 64.21 36.18 99.35.85 11.37 5.24 25.75-3.39 35.04 28.67 57.62 26.58 123.96 24.51 186.63-1.49 20.15 14.7 34.72 32.52 40.57 6.23 4.45 5.94 14.9 2.35 20.99-8.17 8.27-22.46 3.83-31.82-.24-14.92-6.92-24.93-20.91-34.4-33.83-2.14 9.92-19.48 52.49-30.45 61.35.49 18.99.93 37.98.43 56.98-.1 76.7-28.19 150.54-67.22 215.64-24.47 40.42-56.01 76.31-91.22 107.7-.35.32-.71.64-1.06.96.29.86.55 1.85.76 2.96 1.79 11.14 2.64 22.4 3.12 33.7 1.09.55 2.28 1.48 3.58 2.85 27.3 20.8 52.43 46.88 78.36 68.69 32.48 27.34 53.2 35.83 58.36 82.05 2.36 14.11 5.07 28.19 8.54 42.06.97-1 2.22-1.54 3.8-1.22 30.27 29.89 70.75 46.12 109.69 61.84 25.37 12.48 110.21 30.48 120.34 51.29Z"/>
  <path fill="#000" d="M1268.83 1238.27c-4.03.55-8.42-16.11-11.01-19.79-9.15-19.45-19.2-38.7-35.09-52.91-8.58-8.11-20.02-10.83-31.28-12.89-8.01-3.87-6.94-18.01-.83-23.26 10.03-6.58 19.87-13.61 28.73-21.75 21.21-19.5 36.23-46.3 38.35-75.32.61-23.23 14.13-21.66 11.64-2.18l.03.01c-2.58 41.25-22.24 80.82-55.49 105.85 12.62 5.72 22.28 16.6 30.15 27.39 12.27 17.16 21.42 36.49 29.45 55.94 2.17 5.73 2.58 16.91-4.65 18.91Z"/>
  <path fill="#000" d="M1260.94 1248.47c-9.6-7.89 5.01-40.3 7.88-51.45 7.29-21.94 20.55-41.62 38.44-56.31-35.72-12.49-43.35-42.59-46.45-76.73-.5-10.59-3.19-46.01 4.77-52.06 7.15-2.44 7.62 10.18 6.51 14.69-.59 5.95-.78 11.93-.93 17.9.05 9.23.88 18.41 2.38 27.52 3.05 29.97 21.44 44.05 49.39 50.77 5.46.46 7.53 6.31 7.6 11.06.71 7.8-3.91 14.43-9.84 19.01-12.02 10.27-24.28 20.58-32.57 34.26-4.61 7.56-8.02 15.74-11.01 24.05-3.23 9.58-6.03 19.32-8.52 29.12-.69 3.62-2.81 10.75-7.65 8.17Zm-901.12 76.4c-5.63.38-13.97-35.52-16.91-40.71-9.45-27.14-29.18-55.43-60.26-57.67-8.58-.14-12.47.59-13.05-9.76-.17-5.38 1.06-12.36 7.23-13.62 7.75-3.98 14.97-9.01 21.93-14.22 20.92-16.94 33.24-43.24 36.01-69.75 1.02-8.85-.63-17.54-2.31-26.08-.22-4.55 1.2-15.29 7.74-12.59 5.58 6.31 4.67 16.21 5.84 24.14 1.61 38.38-13.13 79.45-43.05 104.39 24.39 10.28 39.67 36 48.34 59.59 4.76 12.3 8.39 25 13.09 37.32 2.24 5.76 2.63 16.95-4.6 18.96Z"/>
  <path fill="#000" d="M356.83 1324.62c-8.62-6.5-1.97-21.84-1.5-30.96 4.72-33.94 16.26-67.99 40.3-93.2-49.07-17.02-59.29-56.5-60.3-103.77-.27-4.62-.53-9.59 1.77-13.79 1.95-4.05 6.22-4.12 7.89.29 3.37 16.28 1.4 33.74 6.2 49.98 7.8 30.19 38.4 44.12 65.9 51.64 4.68 4.19 4.33 12.22 2.29 17.67-1.57 4.24-6.03 6.03-9.28 8.78-11.43 9.28-20.68 20.96-27.7 33.87-9.89 17.83-13.99 37.95-17.05 57.91-1.87 5.99.09 21.94-8.52 21.58Zm-73.91 171.74c-5.04-5.01-4.5-15.29-.05-20.54 37.23-32.4 76.17-62.75 114.76-93.51 9.57-7.61 19.14-15.23 28.71-22.84 7.35-4.61 8.67 9.05 7.37 13.74-.42 2.05-1.22 4.9-2.97 6.29-20.31 16.17-40.63 32.33-60.95 48.5-27.88 22.16-55.65 44.45-82.52 67.85-1.31 1.14-2.88 1.55-4.35.51ZM443.13 366.09c-4.27-4.59-4.14-12.42-7.12-18-4.49-11.52-11.37-22.73-22.35-29.03-4.72-3.12-12.14-2.67-14.79-8.34-4-9.93-.28-18.55 9.1-23.22 11.26-9.98 22.3-22.09 25.06-37.37 2.4-8.71-3.97-21.53 5.12-27.31 7.54-.04 5.89 12.48 6.64 17.64.74 22.13-8.43 43.73-24.22 59.13 10.35 7.34 17.64 18.2 22.58 29.76 3.45 9.51 9.06 19.54 7.29 29.92-.51 3.3-3.18 9.3-7.31 6.82Z"/>
  <path fill="#000" d="M442.75 379.6c-7.74-8.73-.52-21.58 1.27-31.45 4.62-16.2 10.28-32.8 22.25-45.15-16.24-9.1-24.13-26.86-29.11-43.98-2.34-8.43-8.73-32.58 2.22-36.17 6.8 2.06 4.4 11.25 5.67 16.62 1.05 5.48 2.85 10.75 4.73 16 4.65 14.5 15.92 26.1 30.17 31.37 2.1.48 4.22.14 6.31 0 4.7 1.06 5.24 7.48 5.21 11.47.54 8.03-6.12 12.24-11.85 16.37-7.46 6.12-14.22 13.33-18.31 22.15-4.15 9.23-7.11 18.93-9.53 28.74-1.52 4.34-2.05 17.19-9.03 14.03Zm82.79-123.15c-15.95-27.1-31.9-54.2-47.87-81.29-5.1-9.33-14.14-19.28-9.2-30.53 3.29-8.43 9.08-2.84 10.79 3.13 17.77 30.34 35.74 60.57 53.52 90.91 4.54 4.84.72 27.14-7.24 17.78ZM314.83 542.81c-34.93-16.64-71.4-31.07-102.55-54.43-4.13-1.78-4.58-7.4-4.57-11.33.24-4.01 1.25-10.18 5.99-10.96 4.11 1.12 7.2 4.69 10.82 6.87 18.7 13.24 39.53 22.98 60.22 32.65 10.89 5.1 21.79 10.18 32.7 15.24 1.85.86 2.82 2.69 3.44 4.56 1.74 4.96 1.22 18.12-6.05 17.4ZM1131.68 302c-1.89-.97-2.8-2.65-3.47-4.63-4.17-12.37 6.14-22.59 13.36-31.33 13.27-15.51 26.83-30.76 39.81-46.51 18.23-22.13 36.18-44.47 54.27-66.72 2.81-4 6.8-1.26 7.71 2.7 1.46 5 1.26 11.17-1.78 15.56-15.97 19.68-31.79 39.49-47.93 59.03-15.95 19.62-32.81 38.47-49.12 57.77-2.4 2.9-4.8 5.83-6.91 8.95-.83 2.44-2.85 6.23-5.94 5.18Zm94.36 111.62c-3.99-3.56-3.3-9.82-5.11-14.53-3.54-13.15-7.75-28.05-20.47-35.17a47.308 47.308 0 0 0-10.77-3.76c-2.88-.18-5.97-.84-6.96-3.94-2.26-5.8-2.36-15.35 3.73-18.79 16.48-5.86 30.51-21.97 31.08-39.88.37-4.26 5.15-10.97 8.79-5.17 6.78 17.04-5.23 41.15-17.36 53.38 10.34 8.41 16.06 21.17 19.53 33.79 2.19 8.88 6.39 17.97 4.86 27.26-.52 3.29-3.19 9.3-7.32 6.81Z"/>
  <path fill="#000" d="M1229.21 413.73c-6.67-9.93.88-22.15 3.63-32.27 3.97-12.26 11.93-22.68 21.38-31.28-22.96-10.56-32.99-37.88-34.3-61.67-.23-14.58 11.4-17.86 11.35-1.14 2.47 24.29 16.8 41.88 41.4 45.82 6.1.16 8.16 2.23 8.93 8.31 1.4 11.65-3.61 13.64-12.03 19.38-6.57 5.24-12.88 10.77-18.51 17.01-4.56 5.21-7.76 11.34-9.96 17.88-2.58 4.49-3.99 24.22-11.89 17.96Zm563 387.21c-1.81-.07-3.22-1.86-3.83-3.41-5.56-13.9-12.88-27.03-20.3-40.01-16.16-29.45-45.27-59.05-81.3-56.18-5.27 2.73-8.98-2.31-9.2-7.25-1.02-6.97 1.54-16.22 10.07-15.62 10.23-4.81 19.47-11.56 27.64-17.69 27.1-21.03 51.5-50.47 55.51-85.59.8-5.26-2.5-10.03-1.41-15.34.95-10.56 9.24-12.81 11.34-1 7.26 49.42-26.39 96.37-64.46 124.55 21.57 7.81 38.41 24.8 51.07 43.46 6.82 12.73 45.03 65.98 24.87 74.08Z"/>
  <path fill="#000" d="M1789.51 798.89c-7.82-14.38 5.56-34.43 9.22-49.08 9.84-27.99 25.87-54.71 51.46-70.85-36.06-14.52-68.83-42.6-76.32-82.32-2.95-17.31-8.05-44.68 2.27-58.97 11.97-1.56 4.42 20.1 5.34 26.77.41 14.68 3.14 29.63 10.06 42.7 13.68 25.8 39.62 40.73 65.61 51.79 8.6 3.79 17.08 8.38 26.62 6.37 13.17.86 11.54 31.76-8.08 23.46-37.02 12.22-60.28 46.19-71.19 82.14-3.62 5.15-6.22 35.37-14.99 27.99Zm-178.03-299.82c-18.02-15.55 32.86-54.22 43.59-65.7 10.06-9.29 20.12-18.57 30.2-27.84 6.7-5.01 7.45 7.14 5.52 11.21-.67 2.12-1.71 4.31-3.37 5.84-23.01 21.88-47.98 42.04-68.54 66.32-.75 3.92-2.55 10.24-7.4 10.17Zm33.53 42.01c-2.64-5.62-.75-14.51 4.8-17.75 3.93-1.72 8.19-2.69 12.24-4.12 13.41-4.24 26.86-8.41 40.32-12.5 8.42-1.01 4.46 17.56-1.15 19.21-15.6 4.76-31.19 9.55-46.71 14.56-3.13.35-7.24 4.31-9.5.6Zm-85.74-91.56c-4.54-8.3.55-18.67 2.48-27.18 2.83-7.73 3.37-16.98 8.65-23.49 6.7-5.02 7.45 7.15 5.53 11.21-2.42 7.47-4.56 15.03-6.68 22.58-1.11 4.61-1.93 21.22-9.98 16.88Z"/>
  <path fill="url(#a)" d="m1464.09 742.755-104.82-48.426a12.351 12.351 0 0 0-6.93-1.004c-7.43 1.029-14.23 8.308-14.24 17.144l-.41 217.057c0 8.95 6.86 14.215 14.21 13.193 2.8-.389 5.68-1.693 8.27-4.046l88.49-80.51-38.34-17.711c-8.91-4.109-13.08-12.606-13.49-20.593-.41-7.962 2.73-16.396 9.4-22.463l57.86-52.641Z"/>
  <path fill="url(#b)" d="M1580.27 655.233c7.36-1.022 14.23 4.243 14.21 13.194l-.4 217.056c-.02 8.829-6.82 16.108-14.24 17.144-2.36.342-4.77-.007-6.93-1.004l-157.96-72.98c-9.03-4.161-9.72-17.637-1.32-25.281l158.38-144.083c2.59-2.353 5.46-3.657 8.26-4.046Z"/>
  <defs>
    <radialGradient id="a" cx="0" cy="0" r="1" gradientTransform="matrix(-377.89449 46.30588 -17.67736 -144.26197 1716.3 751.547)" gradientUnits="userSpaceOnUse">
      <stop stop-color="#E02E2E"/>
      <stop offset="1" stop-color="#EE215B"/>
    </radialGradient>
    <radialGradient id="b" cx="0" cy="0" r="1" gradientTransform="rotate(-9.876 5546.468 -7317.297) scale(260.889 147.786)" gradientUnits="userSpaceOnUse">
      <stop stop-color="#0091FF"/>
      <stop offset="1" stop-color="#1846C7"/>
    </radialGradient>
  </defs>
</svg>
